<svg xmlns="http://www.w3.org/2000/svg" enable-background="new 0 0 1000 1000" viewBox="0 0 1000 1000"><path fill="#383333" d="M0 0h1000v1000H0z"/><path fill="#2b2727" d="M785.704 675.977H191.641c-13.357 0-24.185-10.828-24.185-24.185s10.828-24.185 24.185-24.185h594.063c13.357 0 24.185 10.828 24.185 24.185s-10.828 24.185-24.185 24.185z"/><path fill="#72361f" d="M706.258 412.873v-51.841c0-19.882-16.118-36-36-36s-36 16.118-36 36v51.841c0 33.137-26.863 60-60 60v152c0 13.255 10.745 24 24 24h144c13.255 0 24-10.745 24-24v-152c-33.138 0-60-26.863-60-60z"/><path fill="#72361f" d="M656.258 325.032h16.409v8.343h-16.409z"/><path fill="#5b3318" d="M692.258 412.873v-51.841c0-19.882-16.118-36-36-36s-36 16.118-36 36v51.841c0 33.137-26.863 60-60 60v152c0 13.255 10.745 24 24 24h144c13.255 0 24-10.745 24-24v-152c-33.138 0-60-26.863-60-60z"/><path fill="#5b3318" d="M752.258 472.873c-22.564 0-42.21-12.462-52.455-30.873l-55.492 22.448-28.156 15.557 66.645 10.4 69.458-13.85v-3.682z"/><circle cx="656.311" cy="361.709" r="12" fill="#783f21"/><path fill="#72361f" d="M311.252 325.018h14v3.732h-14z"/><path fill="#783f21" d="M311.252 349.709h345.059v24H311.252z"/><path fill="#72361f" d="M443.225 349.709h15.907v23.836h-15.907zM356.41 349.709h25.056v23.836H356.41zM552.304 349.709h21.953v23.836h-21.953z" opacity=".44"/><defs><filter id="a" width="330" height="83.008" x="328.466" y="313.709" filterUnits="userSpaceOnUse"><feColorMatrix values="1 0 0 0 0 0 1 0 0 0 0 0 1 0 0 0 0 0 1 0"/></filter></defs><mask id="b" width="330" height="83.008" x="328.466" y="313.709" maskUnits="userSpaceOnUse"><g filter="url(#a)"><path fill="#783f21" d="M311.252 349.709h345.059v24H311.252z"/></g></mask><g mask="url(#b)"><path fill="none" stroke="#300f0f" stroke-linecap="round" stroke-linejoin="round" stroke-miterlimit="10" stroke-width="6" d="M331.466 316.709c1.154 8.285 8.125 53.204 41.333 68.667 4.028 1.876 20.147 9.381 28.667 2.667 11.307-8.911-3.065-33.183 9.333-48 8.007-9.569 23.696-11.03 34-9.333 35.605 5.863 36.266 54.258 70.667 62 21.805 4.908 44.775-9.307 56.667-16.667 24.776-15.333 29.166-31.659 44-32 9.08-.209 22.455 5.563 39.333 35.333"/><path fill="none" stroke="#300f0f" stroke-linecap="round" stroke-linejoin="round" stroke-miterlimit="10" stroke-width="6" d="M358.799 336.042c-3.844 5.814-4.42 13.012-1.333 18.667 3 5.495 8.334 7.469 10 8 1.769.564 8.275 2.332 14-1.333 5.637-3.609 8.368-11.11 6.667-18.667M422.132 376.042c-.519-1.413-4.928-14.059 2.667-25.333.438-.651 6.933-10.05 15.333-10.667 11.891-.873 26.583 15.928 31.333 43.333"/><path fill="none" stroke="#300f0f" stroke-linecap="round" stroke-linejoin="round" stroke-miterlimit="10" stroke-width="6" d="M438.132 358.042c-3.448 1.722-3.995 8.607-2 13.333.366.867 2.902 6.599 7.333 6.667 4.342.066 8.181-5.341 8-10-.265-6.822-9.155-12.087-13.333-10zM495.466 335.375c.271 3.289 1.233 9.556 5.333 16 5.854 9.199 14.287 12.763 17.333 14 2.874 1.167 12.149 4.789 22.667 2 6.952-1.843 9.795-5.254 27.333-21.333a1435.78 1435.78 0 0 1 14-12.667M599.466 380.042c.938-8.154 6.27-14.777 13.333-16.667.685-.183 9.92-2.489 16 4 4.44 4.739 4.088 10.85 4 12"/><path fill="none" stroke="#300f0f" stroke-linecap="round" stroke-linejoin="round" stroke-miterlimit="10" stroke-width="6" d="M527.466 338.042c.042 9.071 4.351 15.846 9.333 16.667 4.207.693 8.175-2.979 10-4.667 4.982-4.609 6.281-10.385 6.667-12.667"/></g><path fill="#c9c9c9" d="M433.491 341.175h-.067l-8.763-23.422 7.184-32.55h18.856l7.184 32.55-8.763 23.422h-.067v70.339h-15.564z"/><path fill="#b5b5b5" d="m444.122 341.175 8.763-23.422-7.184-32.55h5l7.184 32.55-8.763 23.422h-.067v70.339h-5v-70.339z"/><path fill="#f45145" d="M417.178 556.434V442.29c0-5.528 3.344-10.272 8.119-12.325 1.959-.842 2.265-3.51.625-4.873l-6.688-5.56a7.775 7.775 0 0 1-2.805-5.979v-5.275a3.65 3.65 0 0 1 3.649-3.649h42.389a3.65 3.65 0 0 1 3.649 3.649v5.275a7.775 7.775 0 0 1-2.805 5.979l-6.688 5.56c-1.64 1.363-1.334 4.031.625 4.873 4.775 2.053 8.119 6.797 8.119 12.325v114.144c0 7.41-6.007 13.417-13.417 13.417h-21.356c-7.409 0-13.416-6.007-13.416-13.417z"/><path fill="#db493e" d="M457.368 556.434V442.29c0-5.528-3.344-10.272-8.119-12.325-1.959-.842-2.265-3.51-.625-4.873l6.688-5.56a7.775 7.775 0 0 0 2.805-5.979v-5.275a3.65 3.65 0 0 0-3.649-3.649h8a3.65 3.65 0 0 1 3.649 3.649v5.275a7.775 7.775 0 0 1-2.805 5.979l-6.688 5.56c-1.64 1.363-1.334 4.031.625 4.873 4.775 2.053 8.119 6.797 8.119 12.325v114.144c0 7.41-6.007 13.417-13.417 13.417h-8c7.41 0 13.417-6.007 13.417-13.417z"/><path fill="#aa3930" d="M437.008 550.279v-95.333a5 5 0 0 0-10 0v95.333a5 5 0 0 0 10 0zM455.538 550.279v-95.333a5 5 0 0 0-10 0v95.333a5 5 0 1 0 10 0z"/><path fill="#c9c9c9" d="m583.397 284.737-6.005 6.577a6.167 6.167 0 0 1-8.169.848c-5.723-4.126-15.106-11.187-26.974-12.122-17.187-1.354-28.792 4.657-39.306 12.914-15.548 12.209-25.288 26.842-30.485 35.778 3.852 3.414 5.554 4.45 8.609 6.916 4.943-5.087 14.545-15.838 28.086-19.194 2.061-.511 5.828-1.407 10.162 0 1.452.471 4.322 1.642 6.774 4.375 4.304 4.796 4.04 10.741 3.952 12.036v38.843h25.545v-37.131c-.451-6.52 2.333-12.461 7.198-15.019.363-.191 5.205-2.649 9.879-.847 3.407 1.314 7.582 5.22 10.822 8.253.287.269 1.108 1.048 2.411 1.497a6.391 6.391 0 0 0 2.24.346c4.621-.111 14.034-.346 20.509-.561a5.704 5.704 0 0 0 5.512-5.706v-33.809a5.702 5.702 0 0 0-5.591-5.708c-6.233-.12-14.977-.262-20.294-.374a6.396 6.396 0 0 0-4.875 2.088z"/><path fill="#ababab" d="M517.203 314.643c-2.837-3.161-6.156-4.515-7.835-5.06-5.012-1.627-9.37-.591-11.753 0-7.453 1.847-13.871 5.632-19.171 9.725a142.305 142.305 0 0 0-5.986 9.424c3.852 3.414 5.554 4.45 8.609 6.916 4.943-5.087 14.546-15.838 28.086-19.194 1.919-.476 5.317-1.283 9.275-.257a17.074 17.074 0 0 0-1.225-1.554zM612.688 323.222c-7.489.249-18.376.521-23.721.649a7.43 7.43 0 0 1-2.591-.4c-1.507-.519-2.457-1.421-2.789-1.732-3.747-3.507-8.576-8.026-12.516-9.545-5.407-2.085-11.007.759-11.427.979-5.626 2.958-8.847 9.829-8.325 17.371v41.163h4.267v-37.131c-.451-6.52 2.333-12.461 7.198-15.019.363-.191 5.205-2.649 9.879-.847 3.407 1.314 7.582 5.22 10.822 8.253.287.269 1.108 1.048 2.411 1.497a6.391 6.391 0 0 0 2.24.346c4.621-.111 14.034-.346 20.509-.561a5.7 5.7 0 0 0 5.489-5.239c-.464.122-.947.2-1.446.216z"/><path fill="#3b69a9" d="M546.027 548.659h-4.804c-12.564 0-22.618-12.367-22.155-27.253l4.657-149.699h39.8l4.656 149.699c.464 14.887-9.59 27.253-22.154 27.253z"/><path fill="#355e98" d="m568.182 521.406-4.657-149.699h-9.688l4.656 149.699c.433 13.908-8.315 25.613-19.713 27.092.802.104 1.616.161 2.442.161h4.804c12.565 0 22.619-12.366 22.156-27.253z"/><path fill="#355e98" d="M568.712 383.775h-50.174a6.034 6.034 0 1 1 0-12.068h50.174a6.034 6.034 0 0 1 6.034 6.034 6.035 6.035 0 0 1-6.034 6.034z"/><path fill="#72361f" d="m521.785 437.531 42.764-29.435.842 27.071-44.306 24.866z" opacity=".23"/><path fill="#c9c9c9" d="M682.212 322.593 416.547 528.426l51.828 66.893 294.337-169.801z"/><path fill="#e1e1e1" d="M751.072 408.709 455.649 578.722l13.102 16.911 290.201-167.987z"/><path fill="#fdc457" d="m823.413 357.74-54.692-70.589c-8.446-10.902-24.131-12.892-35.032-4.446l-5.757 4.461 20.384 26.31h.001a14.5 14.5 0 0 1 4.435-.731c.331-.003.662.004.992.024.053.003.106.009.159.013.95.067 1.889.227 2.809.477.146.04.293.077.439.121a14.683 14.683 0 0 1 1.222.437c.198.08.395.161.589.25.235.107.465.226.694.346.141.074.284.14.423.219.357.202.705.423 1.046.657.12.082.235.173.353.259a14.119 14.119 0 0 1 1.065.859c.228.203.45.415.667.635.1.101.201.198.299.303.306.328.604.668.884 1.03l26.008 33.568c.281.362.535.735.776 1.114.076.12.146.243.218.364a14.79 14.79 0 0 1 .66 1.233c.128.27.244.544.353.819.054.136.113.27.163.407.141.388.268.78.375 1.176.042.154.07.311.107.466.059.252.117.505.162.759.038.21.066.42.094.631a14.689 14.689 0 0 1 .118 1.293c.006.152.006.303.008.455a14.6 14.6 0 0 1-.239 2.839l-.028.159c-.063.325-.14.646-.225.967l-.038.139a14.51 14.51 0 0 1-1.776 3.971l-.001.002 21.613 27.896 3.409-1.967c13.112-7.567 16.533-24.962 7.263-36.926z"/><path fill="#f2b24c" d="M784.658 344.458 758.65 310.89c-.28-.362-.578-.702-.884-1.03-.097-.104-.199-.202-.299-.303a14.748 14.748 0 0 0-1.028-.947c-.23-.191-.465-.372-.705-.547-.118-.086-.233-.177-.353-.259a14.29 14.29 0 0 0-1.046-.657c-.139-.079-.282-.145-.423-.219a14.01 14.01 0 0 0-.694-.346c-.195-.089-.392-.17-.589-.25a14.683 14.683 0 0 0-1.222-.437c-.145-.044-.292-.082-.439-.121-.92-.25-1.86-.41-2.809-.477l-.159-.013a14.91 14.91 0 0 0-.992-.024l-.145.003a14.533 14.533 0 0 0-4.29.728l-14.607-18.852-.032.025 20.384 26.31h.001a14.5 14.5 0 0 1 4.435-.731c.331-.003.662.004.992.024.053.003.106.009.159.013.95.067 1.889.227 2.809.477.146.04.293.077.439.121a14.683 14.683 0 0 1 1.222.437c.198.08.395.161.589.25.235.107.465.226.694.346.141.074.284.14.423.219.357.202.705.423 1.046.657.12.082.235.173.353.259a14.119 14.119 0 0 1 1.065.859c.228.203.45.415.667.635.1.101.201.198.299.303.306.328.604.668.884 1.03l20.725 26.749c-.151-.223-.295-.448-.462-.664zM823.413 357.74l-4.901-6.325c8.197 11.904 4.587 28.442-8.106 35.765l-3.409 1.967-15.845-20.451-.021.036-.001.002 21.613 27.896 3.409-1.967c13.11-7.564 16.531-24.959 7.261-36.923z"/><path fill="#323b40" d="m762.184 316.094-.03-.023.03.023zM761.126 315.288a14.29 14.29 0 0 1 0 0zM762.545 316.406zM759.657 314.412a13.185 13.185 0 0 1 0 0zM755.319 312.95zM752.752 312.744l-.03.001.03-.001zM793.312 358.908c.026.196.049.393.067.589v-.001a14.689 14.689 0 0 0-.067-.588zM758.374 313.816c-.083-.034-.167-.064-.251-.096.084.032.168.062.251.096zM753.903 312.78l-.159-.013.159.013zM793.154 357.983c.02.098.045.196.063.294-.017-.098-.042-.195-.063-.294zM792.574 355.876c.091.249.163.501.24.753-.078-.251-.15-.504-.24-.753zM793.43 360.202c.007.152.006.303.008.455-.002-.151-.002-.303-.008-.455zM792.057 354.651c.058.124.107.25.162.375-.054-.125-.103-.251-.162-.375zM791.13 368.733l.001-.002a14.489 14.489 0 0 1-3.321 3.645l-8.499 6.585c-12.769 9.893-31.14 7.562-41.033-5.207l-8.024-10.356c-9.893-12.769-7.562-31.14 5.207-41.033l8.499-6.585a14.501 14.501 0 0 1 4.357-2.305h-.001l-20.384-26.31-53.277 41.278L753.82 430.62l62.331-35.959-3.409 1.967-21.612-27.895zM791.397 353.418c.083.14.158.283.236.424-.078-.141-.152-.284-.236-.424zM790.403 351.94a14.662 14.662 0 0 0 0 0zM793.198 363.496l-.002.011.002-.011zM793.387 362.083z"/><path fill="#2d363a" d="m812.738 396.633-58.916 33.99-5.382-6.945 58.674-34.308z"/><path fill="#7d4025" d="M738.252 648.858h-350.12v-176h364.119v162c.001 7.732-6.267 14-13.999 14z"/><circle cx="389.466" cy="513.325" r="9" fill="#783f21"/><path fill="#72361f" d="M361.252 412.858v-51.841c0-19.882-16.118-36-36-36s-36 16.118-36 36v51.841c0 33.137-26.863 60-60 60v152c0 13.255 10.745 24 24 24h144c13.255 0 24-10.745 24-24v-152c-33.137 0-60-26.863-60-60z"/><path fill="#72361f" d="M742.382 648.858H398.918l14.964-14h341.5z"/><path fill="#72361f" d="M752.252 472.858V624.858c0 5.514-4.486 10-10 10H697.8v14h44.453c13.255 0 24-10.745 24-24v-152h-14.001z"/><defs><filter id="c" width="443.525" height="374.852" x="373.132" y="396.149" filterUnits="userSpaceOnUse"><feColorMatrix values="1 0 0 0 0 0 1 0 0 0 0 0 1 0 0 0 0 0 1 0"/></filter></defs><mask id="d" width="443.525" height="374.852" x="373.132" y="396.149" maskUnits="userSpaceOnUse"><g filter="url(#c)"><path fill="#fff" d="M766.341 624.86c0 13.255-10.745 24-24 24H380.549h2.435c13.233 0 23.969-10.711 24-23.945l.351-152.124h359.006V624.86z"/></g></mask><g mask="url(#d)" opacity=".08"><path fill="none" stroke="#300f0f" stroke-linecap="round" stroke-linejoin="round" stroke-miterlimit="10" stroke-width="6" d="M414.122 598.079c8.968-15.188 40.779 1.635 26.336 18.298-11.361 13.109-34.984-3.651-26.336-18.298 4.582-7.759-3.492 5.916 0 0z"/><path fill="none" stroke="#300f0f" stroke-linecap="round" stroke-linejoin="round" stroke-miterlimit="10" stroke-width="5.843" d="M451 460.333c.112 24.314 8.162 60.941 23.333 73.333 30.049 24.546 124.715-16.022 126-55.333C601.905 430.241 463.807 381.956 445 405c-5.821 7.133-5.338 27.626-1.701 28.709 1.177.351 2.254-2.168 3.693-1.95 4.228.64 3.984 23.458 4.008 28.574z"/><path fill="none" stroke="#300f0f" stroke-linecap="round" stroke-linejoin="round" stroke-miterlimit="10" stroke-width="6" d="M388.418 481.209c-23.928 66.48 71.266 53.487 89.105 97.39 18.832 46.345-42.428 82.458-78.272 93.11"/><path fill="none" stroke="#300f0f" stroke-linecap="round" stroke-linejoin="round" stroke-miterlimit="10" stroke-width="6" d="M391.799 578.709c40.355-27.602 81.919-3.44 57.261 42.1-14.423 26.637-43.471 40.206-72.928 41.9M728.292 533.587c3.931 2.382 10.618 5.562 19.049 5.556 3.814-.003 8.606-.075 12.699-3.439 1.133-.931 4.383-3.603 4.498-7.143.203-6.27-9.519-12.428-18.255-12.964-7.091-.435-17.111 2.614-19.049 9.789-.883 3.269.192 6.361 1.058 8.201z"/><path fill="none" stroke="#300f0f" stroke-linecap="round" stroke-linejoin="round" stroke-miterlimit="10" stroke-width="6" d="M715.241 556.868c9.149 4.977 18.093 3.553 35.981.706 12.087-1.924 18.685-3.063 25.398-8.466 1.881-1.514 11.867-9.551 12.699-21.871 1.077-15.944-13.865-28.891-26.104-33.864-21.237-8.629-40.925 4.077-44.447 6.349-6.135 3.96-21.091 13.611-21.165 29.631-.058 12.509 8.985 22.808 17.638 27.515z"/><path fill="none" stroke="#300f0f" stroke-linecap="round" stroke-linejoin="round" stroke-miterlimit="10" stroke-width="6" d="M786.132 576.709c-5.319 4.055-22.732 16.9-46.667 14-19.154-2.321-31.284-13.368-34.667-16.667-15.046-14.673-17.357-32.408-18-38-.643-5.599-2.009-19.044 5.16-33.497 6.051-12.2 15.02-18.683 20.459-22.576 22.579-16.16 47.022-13.896 51.502-13.404 8.401.922 21.069 2.313 32.453 11.993 20.031 17.034 17.361 45.353 16.932 50.091-2.596 28.643-23.218 45.045-27.172 48.06z"/><path fill="none" stroke="#300f0f" stroke-linecap="round" stroke-linejoin="round" stroke-miterlimit="10" stroke-width="6" d="M795.668 590.027c-3.303 3.201-8.486 7.542-15.668 10.973-27.609 13.191-58.548.407-75.667-6.667-17.727-7.325-29.943-15.771-46.667-27.333-29.144-20.15-32.599-28.492-51.333-33.333-6.033-1.559-25.225-6.238-44.534 2.542-5.778 2.627-10.211 6.042-14.799 9.791-22.299 18.222-28.463 38.799-48 82a1191.226 1191.226 0 0 1-20 42"/><path fill="none" stroke="#300f0f" stroke-linecap="round" stroke-linejoin="round" stroke-miterlimit="10" stroke-width="6" d="M523 724c15.788 5.149 47.904-66.893 69.483-59.19 12.14 4.333 10.933 30.333 20.517 31.19 10.594.948 21.019-30.023 22-33 2.548-7.734 19.415-58.935-9-92-3.854-4.484-12.712-14.514-27.167-17.659 0 0-15.462-3.365-33.833 5.659-48.288 23.721-62.508 158.312-42 165z"/><path fill="none" stroke="#300f0f" stroke-linecap="round" stroke-linejoin="round" stroke-miterlimit="10" stroke-width="6" d="M565 637c5.748 4.154 20.161-5.729 28-15 3.919-4.635 12.097-14.307 8.386-21.758-2.876-5.774-11.761-7.948-18.386-6.242-7.479 1.926-11.047 8.532-14 14-4.831 8.944-9.627 24.933-4 29zM603.968 438.253c9.807 10.069 20.698 24.526 17.638 38.803-2.278 10.624-10.977 15.066-9.272 17.944 3.255 5.496 39.916-2.364 64-28 12.824-13.65 18.653-28.689 21.466-38.624M507 497c7.578 8.249 22.608 15.42 34 10 10.959-5.214 13.376-19.617 14-23.333 5.009-29.85-21.436-65.791-37.029-62.881C501.046 423.944 486.603 474.797 507 497z"/><path fill="none" stroke="#300f0f" stroke-linecap="round" stroke-linejoin="round" stroke-miterlimit="10" stroke-width="6" d="M522.217 435.657c5.588.113 10.448 17.316 10.783 31.343.167 6.978-.532 23.846-5.333 24.667-6 1.025-19.721-22.784-14.018-43.054.147-.522 3.771-13.053 8.568-12.956zM798.16 632.941c-38.974 24.07-57.435 23.215-67.023 16.932-6.903-4.524-9.903-12.319-28.22-26.809-7.722-6.109-13.813-9.963-21.165-9.171-7.2.775-12.071 5.624-13.404 7.055-4.677 5.022-5.653 10.769-7.055 19.754-1.623 10.401-.076 13.319-2.117 23.282a74.665 74.665 0 0 1-3.527 11.993"/><path fill="none" stroke="#300f0f" stroke-linecap="round" stroke-linejoin="round" stroke-miterlimit="10" stroke-width="6" d="M680.799 657.375c-7.279-10.599-8.184-20.945-4-24.667 4.964-4.415 16.116 1.355 17.333 2 12.419 6.585 15.884 20.429 16.667 24M501.466 554.154c-7.169 1.187-14.761 8.237-13.333 16 .964 5.239 5.901 10.07 10.667 10 9.109-.134 16.724-18.162 12-24-2.531-3.127-8.145-2.197-9.334-2zM548 613c3.88-12.657 9.652-31.481 27-39 2.417-1.047 14.74-6.388 27.799-.625 13.603 6.004 17.795 19.559 18.667 22.667 5.698 20.318-9.775 36.435-10.667 37.333-3.139 3.162-5.79 4.649-19.333 10.667C565.19 655.716 551.97 661.503 548 659c-11.819-7.45-1.335-41.644 0-46z"/><path fill="none" stroke="#300f0f" stroke-linecap="round" stroke-linejoin="round" stroke-miterlimit="10" stroke-width="7.805" d="M403.003 487.655c.549 4.297 2.926 22.883 17.364 30.721 4.317 2.343 13.462 5.761 17.364 2.004 5.053-4.866-3.788-16.85-9.35-40.071-6.569-27.426-1.661-41.707-6.011-42.742-6.014-1.432-22.685 24.139-19.367 50.088z"/><path fill="none" stroke="#300f0f" stroke-linecap="round" stroke-linejoin="round" stroke-miterlimit="10" stroke-width="6" d="M761 662c-20.635-11.105-30.338-27.14-27-34 3.322-6.828 21.749-9.061 43 0M673 599c-.129-4.02-8.961-9.544-14-6-4.07 2.863-4.096 10.537-1 13 4.25 3.38 15.146-2.45 15-7z"/><path fill="none" stroke="#300f0f" stroke-linecap="round" stroke-linejoin="round" stroke-miterlimit="10" stroke-width="5.352" d="M628 508c-4.969 2.587-7.421 3.943-8 6-2.063 7.326 12.843 18.476 26 23.5 7.993 3.052 17.404 6.531 24.258 1.642 8.479-6.048 8.243-21.532 2.742-30.142-.882-1.381-3.189-4.893-7.567-6.918-2.108-.975-4.791-2.237-11.433-1.082-12.714 2.212-18.559 3.126-26 7z"/><path fill="none" stroke="#300f0f" stroke-linecap="round" stroke-linejoin="round" stroke-miterlimit="10" stroke-width="6" d="M650.444 514.77c-6.038.553-11.15 5.357-9.047 9.037 1.683 2.946 7.594 4.48 12.337 3.389 5.336-1.227 8.812-5.688 6.58-9.037-1.698-2.547-6.213-3.724-9.87-3.389zM489.667 443.667c-1.998 3.549-17.324 31.818-4 59.333 2.176 4.493 9.044 18.676 24 24 22.034 7.843 46.299-8.997 58-24.667 12.919-17.299 13.036-36.534 12.667-44"/></g><path fill="#d98c40" d="M347.252 412.858v-51.841c0-19.882-16.118-36-36-36s-36 16.118-36 36v51.841c0 33.137-26.863 60-60 60v152c0 13.255 10.745 24 24 24h144c13.255 0 24-10.745 24-24v-152c-33.137 0-60-26.863-60-60z"/><path fill="#c87634" d="M217.435 634.858c3.793 8.26 12.132 14 21.816 14h144c9.685 0 18.024-5.74 21.816-14H217.435z"/><defs><filter id="e" width="305.376" height="372.683" x="195.018" y="329.655" filterUnits="userSpaceOnUse"><feColorMatrix values="1 0 0 0 0 0 1 0 0 0 0 0 1 0 0 0 0 0 1 0"/></filter></defs><mask id="f" width="305.376" height="372.683" x="195.018" y="329.655" maskUnits="userSpaceOnUse"><g filter="url(#e)"><path fill="#d98c40" d="M347.252 412.858v-51.841c0-19.882-16.118-36-36-36s-36 16.118-36 36v51.841c0 33.137-26.863 60-60 60v152c0 13.255 10.745 24 24 24h144c13.255 0 24-10.745 24-24v-152c-33.137 0-60-26.863-60-60z"/></g></mask><g mask="url(#f)"><path fill="none" stroke="#cf8139" stroke-linecap="round" stroke-linejoin="round" stroke-miterlimit="10" stroke-width="6" d="M252.132 678.709c-18.342-25.564-6.256-74.033 23.333-89.333 13.773-7.122 27.239-4.937 31.119-4.252 37.205 6.573 69.172 55.068 56.667 84-14.23 32.924-87.132 43.015-111.119 9.585z"/><path fill="none" stroke="#cf8139" stroke-linecap="round" stroke-linejoin="round" stroke-miterlimit="10" stroke-width="6" d="M216.132 650.709c-7.98-22.441 10.715-56.083 35.667-72 46.651-29.761 98.228 13.248 134-16 29.922-24.465 18.608-74.812 25-75 9.705-.285 58.115 115.126 0 176-56.672 59.363-179.396 29.94-194.667-13z"/><path fill="none" stroke="#cf8139" stroke-linecap="round" stroke-linejoin="round" stroke-miterlimit="10" stroke-width="6" d="M277.799 656.709c-9.164-9.988-13.967-27.376-5.667-40 6.171-9.386 17.181-11.354 20.667-12 15.94-2.952 41.418 3.064 46 22.667 3.863 16.526-9.008 34.652-26 39.333-12.435 3.425-26.296-.514-35-10z"/><path fill="none" stroke="#cf8139" stroke-linecap="round" stroke-linejoin="round" stroke-miterlimit="10" stroke-width="4.913" d="M379.465 625.707c5.26-2.421 5.881-19.525-2.456-25.791-2.944-2.213-8.318-4.061-11.872-1.638-3.861 2.633-3.359 8.798-3.275 9.825.841 10.327 12.637 19.891 17.603 17.604z"/><path fill="none" stroke="#cf8139" stroke-linecap="round" stroke-linejoin="round" stroke-miterlimit="10" stroke-width="6" d="M212.132 527.375c7.328-2.62 17.648 2.249 21.333 9.333 8.913 17.133-20.148 48.81-29.333 45.333-9.468-3.583-8.773-48.669 8-54.666zM207.799 499.709a117.93 117.93 0 0 0 33 20.333c19.203 7.818 36.331 8.85 46.667 8.667 15.579-3.888 24.221-10.748 29.333-17 26.121-31.942 5.642-103.699-54-177"/><path fill="none" stroke="#cf8139" stroke-linecap="round" stroke-linejoin="round" stroke-miterlimit="10" stroke-width="6" d="M219.409 470.013c8.019 19.732 33.766 35.855 52.39 28.696 12.991-4.994 18.019-19.587 19.607-24.196 11.008-31.952-8.058-76.933-29.607-78.804-22.437-1.948-55.452 42.16-42.39 74.304zM403.799 377.709c-5.948-20.01-23.105-47.312-38.906-44.905-18.244 2.779-23.501 43.768-25.094 48.905-11.578 37.32 7.278 84.664 26 87 13.869 1.73 26.99-22.592 31-30 3.202-5.915 15.885-31.111 7-61zM352.894 490.296c-2.994 1.608-7.114 4.47-25.095 40.413-8.655 17.3-9.556 20.347-8 23 4.827 8.229 29.629 6.411 46.594-4.916 20.329-13.572 33.756-43.055 23.999-55.497-7.14-9.105-25.633-9.374-37.498-3z"/><path fill="none" stroke="#cf8139" stroke-linecap="round" stroke-linejoin="round" stroke-miterlimit="10" stroke-width="6" d="M363.394 505.295c-11.139 7.758-21.313 22.835-17.595 27.414 4.205 5.177 27.749-1.132 32.5-15.167 1.932-5.707 1.224-14.074-3-16.167-3.594-1.781-8.538 1.575-11.905 3.92zM296.799 628.709c-10.892 5.823-7.489 36.636 1.333 39.333 7.749 2.369 26.851-14.761 21.333-28.667-3.494-8.808-16.031-14.214-22.666-10.666zM244.799 548.709c-.523 3.323 8.884 7.891 16.667 8.667 2.74.273 7.39.737 9.333-2 1.563-2.2.928-5.838-.667-8-5.259-7.135-24.621-3.188-25.333 1.333zM232.132 454.709c1.001 16.044 18.557 31.514 27.667 28 8.218-3.17 12.341-22.86 3.667-34.667-6-8.167-18.862-13.568-26-8.667-6.032 4.142-5.424 13.887-5.334 15.334zM305.799 349.709c-3.671 2.503-3.297 13.91 4 20 8.162 6.812 20.614 3.322 22-1 2.155-6.719-19.968-23.113-26-19z"/><path fill="none" stroke="#cf8139" stroke-linecap="round" stroke-linejoin="round" stroke-miterlimit="10" stroke-width="4.913" d="M452.799 570.709c-14.186-5.119-40.293-8.061-53 8-14.303 18.078-.224 45.814 2 50 1.584 2.981 14.83 26.916 43 31 16.735 2.426 41.43-1.763 50-18 11.967-22.673-12.065-60.198-42-71z"/></g><circle cx="389.466" cy="560.858" r="9" fill="#72361f"/><circle cx="389.466" cy="513.325" r="9" fill="#72361f"/><circle cx="389.466" cy="608.392" r="9" fill="#72361f"/><circle cx="232.132" cy="513.325" r="9" fill="#72361f"/><circle cx="232.132" cy="560.858" r="9" fill="#72361f"/><circle cx="232.132" cy="608.392" r="9" fill="#72361f"/><circle cx="311.252" cy="361.709" r="12" fill="#72361f"/></svg>