<?xml version="1.0" standalone="no"?>
<svg xmlns:xlink="http://www.w3.org/1999/xlink" id="wave" style="transform:rotate(180deg); transition: 0.3s" viewBox="0 0 1440 490" version="1.1" xmlns="http://www.w3.org/2000/svg"><defs><linearGradient id="sw-gradient-0" x1="0" x2="0" y1="1" y2="0"><stop stop-color="rgba(0, 0, 0, 1)" offset="0%"/><stop stop-color="rgba(0, 0, 0, 1)" offset="100%"/></linearGradient></defs><path style="transform:translate(0, 0px); opacity:1" fill="url(#sw-gradient-0)" d="M0,0L48,8.2C96,16,192,33,288,106.2C384,180,480,310,576,343C672,376,768,310,864,277.7C960,245,1056,245,1152,277.7C1248,310,1344,376,1440,359.3C1536,343,1632,245,1728,179.7C1824,114,1920,82,2016,98C2112,114,2208,180,2304,220.5C2400,261,2496,278,2592,310.3C2688,343,2784,392,2880,383.8C2976,376,3072,310,3168,302.2C3264,294,3360,343,3456,343C3552,343,3648,294,3744,294C3840,294,3936,343,4032,318.5C4128,294,4224,196,4320,147C4416,98,4512,98,4608,122.5C4704,147,4800,196,4896,236.8C4992,278,5088,310,5184,294C5280,278,5376,212,5472,220.5C5568,229,5664,310,5760,302.2C5856,294,5952,196,6048,196C6144,196,6240,294,6336,326.7C6432,359,6528,327,6624,302.2C6720,278,6816,261,6864,253.2L6912,245L6912,490L6864,490C6816,490,6720,490,6624,490C6528,490,6432,490,6336,490C6240,490,6144,490,6048,490C5952,490,5856,490,5760,490C5664,490,5568,490,5472,490C5376,490,5280,490,5184,490C5088,490,4992,490,4896,490C4800,490,4704,490,4608,490C4512,490,4416,490,4320,490C4224,490,4128,490,4032,490C3936,490,3840,490,3744,490C3648,490,3552,490,3456,490C3360,490,3264,490,3168,490C3072,490,2976,490,2880,490C2784,490,2688,490,2592,490C2496,490,2400,490,2304,490C2208,490,2112,490,2016,490C1920,490,1824,490,1728,490C1632,490,1536,490,1440,490C1344,490,1248,490,1152,490C1056,490,960,490,864,490C768,490,672,490,576,490C480,490,384,490,288,490C192,490,96,490,48,490L0,490Z"/></svg>