<?xml version="1.0" encoding="UTF-8"?>
<svg xmlns="http://www.w3.org/2000/svg" xmlns:xlink="http://www.w3.org/1999/xlink" viewBox="0 0 480 480" width="480px" height="480px">
<g id="surface9001439">
<path style=" stroke:none;fill-rule:nonzero;fill:rgb(92.54902%,94.117647%,94.509804%);fill-opacity:1;" d="M 240 190 L 0 190 C 30 236.671875 80 290 120 330 L 360 330 C 400 290 450 236.671875 480 190 Z M 240 190 "/>
<path style=" stroke:none;fill-rule:nonzero;fill:rgb(0%,0%,0%);fill-opacity:1;" d="M 45.53125 250 C 51.238281 256.730469 57.070312 263.390625 62.988281 270 L 417.011719 270 C 422.929688 263.390625 428.761719 256.730469 434.46875 250 Z M 379.660156 310 C 385.941406 303.53125 392.289062 296.851562 398.699219 290 L 81.300781 290 C 87.710938 296.851562 94.058594 303.53125 100.339844 310 Z M 13.800781 210 C 18.609375 216.609375 23.738281 223.289062 29.070312 230 L 450.929688 230 C 456.261719 223.289062 461.378906 216.609375 466.199219 210 Z M 13.800781 210 "/>
<path style=" stroke:none;fill-rule:nonzero;fill:rgb(92.54902%,94.117647%,94.509804%);fill-opacity:1;" d="M 240 140 C 179.25 140 130 189.25 130 250 C 130 310.75 179.25 360 240 360 C 300.75 360 350 310.75 350 250 C 350 189.25 300.75 140 240 140 Z M 240 140 "/>
<path style=" stroke:none;fill-rule:nonzero;fill:rgb(0%,0%,0%);fill-opacity:1;" d="M 240 160 C 190.292969 160 150 200.292969 150 250 C 150 299.707031 190.292969 340 240 340 C 289.707031 340 330 299.707031 330 250 C 330 200.292969 289.707031 160 240 160 Z M 240 160 "/>
<path style=" stroke:none;fill-rule:nonzero;fill:rgb(100%,100%,100%);fill-opacity:1;" d="M 230 230 L 240 230 L 240 270 L 230 270 Z M 250 230 L 260 230 L 260 270 L 250 270 Z M 300 230 L 310 230 L 310 270 L 300 270 Z M 280 230 L 290 230 L 290 270 L 280 270 Z M 210 230 L 220 230 L 220 270 L 210 270 Z M 170 230 L 180 230 L 180 270 L 170 270 Z M 170 230 "/>
<path style=" stroke:none;fill-rule:nonzero;fill:rgb(100%,100%,100%);fill-opacity:1;" d="M 252.277344 236.347656 L 260.011719 229.992188 L 287.742188 263.742188 L 280.007812 270.097656 Z M 252.277344 236.347656 "/>
<path style=" stroke:none;fill-rule:nonzero;fill:rgb(100%,100%,100%);fill-opacity:1;" d="M 218.910156 234.699219 L 210.078125 230 L 195.039062 258.199219 L 180 230 L 171.171875 234.699219 L 190 270 L 200.078125 270 Z M 218.910156 234.699219 "/>
</g>
</svg>
