<?xml version="1.0" encoding="UTF-8"?>
<svg xmlns="http://www.w3.org/2000/svg" xmlns:xlink="http://www.w3.org/1999/xlink" viewBox="0 0 480 480" width="480px" height="480px">
<g id="surface8998771">
<path style=" stroke:none;fill-rule:nonzero;fill:rgb(0%,0%,0%);fill-opacity:1;" d="M 90.679688 260 C 93.910156 290.179688 110.691406 329.730469 138.988281 364.121094 C 163.46875 393.859375 197.21875 419.238281 239.96875 430 L 240 430 L 240 260 Z M 90.679688 260 "/>
<path style=" stroke:none;fill-rule:nonzero;fill:rgb(92.54902%,94.117647%,94.509804%);fill-opacity:1;" d="M 240.011719 50.058594 C 289.390625 50.871094 338.78125 60.230469 388.179688 78.128906 L 389.898438 78.761719 L 389.898438 250 C 389.808594 281 372.429688 325.820312 340.929688 364.121094 C 316.460938 393.871094 282.730469 419.238281 240 430 L 239.96875 430 C 197.238281 419.238281 163.5 393.871094 139.039062 364.121094 C 107.53125 325.820312 90.148438 281 90.058594 250 L 90.058594 78.761719 L 91.78125 78.128906 C 141.179688 60.230469 190.570312 50.871094 239.949219 50.058594 L 240.011719 50.058594 M 240.089844 40.058594 L 239.960938 40.058594 C 189.539062 40.878906 138.601562 50.53125 88.378906 68.730469 L 86.640625 69.359375 L 80.058594 71.761719 L 80.058594 250 C 80.171875 285.46875 100.28125 332.75 131.308594 370.46875 C 160.148438 405.519531 196.871094 429.460938 237.53125 439.691406 L 238.730469 439.988281 L 241.210938 439.988281 L 242.441406 439.691406 C 283.089844 429.460938 319.820312 405.519531 348.660156 370.46875 C 379.691406 332.738281 399.800781 285.46875 399.910156 250.03125 L 399.910156 71.761719 L 393.328125 69.359375 L 391.609375 68.730469 C 341.371094 50.519531 290.421875 40.878906 240.179688 40.058594 Z M 240.089844 40.058594 "/>
<path style=" stroke:none;fill-rule:nonzero;fill:rgb(0%,0%,0%);fill-opacity:1;" d="M 240 430 C 282.75 419.238281 316.5 393.871094 340.980469 364.121094 C 372.488281 325.820312 389.878906 281 389.96875 250 L 240 250 Z M 240 430 "/>
<path style=" stroke:none;fill-rule:nonzero;fill:rgb(92.54902%,94.117647%,94.509804%);fill-opacity:1;" d="M 261.140625 339.691406 C 263.378906 337.96875 268.378906 336.339844 271.21875 335.171875 C 271.140625 331.011719 269.390625 327.101562 270.429688 323.679688 C 272.328125 317.441406 276.609375 314.699219 280.871094 314.230469 C 281.140625 314.320312 281.378906 314.828125 281.121094 314.980469 C 278.730469 317.179688 277.851562 320.238281 277.359375 323.699219 C 277.171875 325.039062 276.980469 329 278.210938 331.828125 C 280.699219 330.601562 286.761719 328.53125 288.820312 328.011719 C 289.03125 323.871094 289.699219 319.808594 290.910156 316.839844 C 293.308594 310.988281 298.578125 306.390625 303.898438 309.03125 C 304.179688 309.171875 304.398438 309.71875 304.109375 309.820312 C 300.800781 311.011719 298.671875 314.398438 296.78125 318.230469 C 296.21875 319.359375 294.351562 325.601562 296.511719 326.890625 C 296.550781 326.910156 296.589844 326.941406 296.621094 326.960938 C 300.429688 326.210938 301.058594 326.539062 305.160156 326.199219 C 305.871094 322.128906 307.640625 318.738281 309.238281 316.03125 C 311.671875 311.488281 317.761719 307.871094 323.339844 311.128906 C 323.640625 311.308594 323.820312 311.890625 323.488281 311.960938 C 319.679688 312.78125 317.199219 315.230469 315.78125 317.378906 C 315.058594 318.421875 311.578125 323.28125 313.339844 325.191406 C 313.539062 325.179688 313.738281 325.179688 313.941406 325.171875 C 317.21875 325.070312 319.578125 325.710938 323.128906 326.351562 C 324.140625 323.949219 325.058594 323.589844 326.121094 322.289062 C 329.890625 317.738281 336.460938 316.140625 338.628906 320.480469 C 338.839844 320.71875 338.890625 321.320312 338.609375 321.300781 C 336.609375 321.601562 333.339844 322.570312 331.691406 324.578125 C 331.261719 325.011719 330.199219 326.148438 329.210938 328.289062 C 333.648438 331.660156 336.25 334.339844 337.429688 338.96875 C 337.640625 339.808594 338.121094 344.390625 336.449219 342.050781 C 329.199219 333.140625 319.429688 331.199219 304.671875 332.558594 C 288.929688 334.019531 281.710938 336.25 265.890625 344.589844 C 274.609375 352.238281 261.511719 359.71875 259.378906 348.539062 C 251.710938 359.929688 243.621094 345.578125 253.988281 343.488281 C 243.949219 333.5 258.289062 328.871094 261.140625 339.691406 Z M 287.988281 290.371094 C 293.648438 288.511719 299.851562 286.578125 303.011719 285.898438 C 303.601562 276.800781 312.28125 265.558594 322.589844 269.488281 C 322.96875 269.628906 323.25 270.179688 322.871094 270.28125 C 320.21875 271 311.789062 278.96875 314.679688 283.988281 C 316.789062 284.101562 322.570312 284 324.398438 284.089844 C 326.679688 274.050781 335.449219 267.058594 345.601562 271.601562 C 345.988281 271.78125 346.230469 272.359375 345.808594 272.429688 C 341.828125 273.078125 332.808594 279.320312 333.839844 284.550781 C 335.699219 284.671875 340.671875 286.378906 343.949219 288.089844 C 345.128906 285.679688 346.449219 284.679688 347.710938 283.390625 C 352.109375 278.839844 361.121094 278.519531 363.648438 282.871094 C 363.898438 283.109375 363.960938 283.710938 363.628906 283.699219 C 359.738281 283.570312 356.339844 284.109375 353.109375 286.980469 C 352.621094 287.410156 351.511719 288.980469 350.359375 291.121094 C 353.511719 292.78125 357.058594 296.089844 357.738281 299.230469 C 358.25 300.761719 358.589844 302.089844 358.261719 303.679688 C 358.171875 304.101562 357.308594 303.691406 357.03125 303.378906 C 348.710938 294.46875 330.328125 288.921875 312.519531 291.109375 C 300.609375 292.570312 289.03125 295.710938 279.320312 299.941406 C 282.570312 297.078125 285.480469 293.871094 287.988281 290.371094 Z M 261.738281 310.648438 C 260.921875 311.378906 260.148438 312.121094 259.429688 312.878906 C 263.71875 318.53125 256.988281 323.179688 255 317.410156 C 249.960938 322.730469 245.96875 316.550781 249.269531 313.960938 C 253.609375 313.300781 257.78125 312.179688 261.738281 310.648438 Z M 258.839844 387.179688 C 260.03125 385.898438 262.898438 383.429688 264.351562 382.300781 C 259.921875 375.359375 262.398438 366.609375 266.679688 365.988281 C 266.898438 366.078125 267.148438 366.558594 266.960938 366.71875 C 265.800781 368.371094 265.191406 377.429688 268.621094 379.460938 C 270.328125 378.269531 273.679688 376.011719 275.148438 375.519531 C 272.640625 367.238281 277.050781 356.128906 285.429688 357.929688 C 285.660156 358.058594 285.898438 358.601562 285.699219 358.699219 C 278.769531 362.148438 278.75 372.519531 280.589844 373.75 C 283.339844 373.019531 286.460938 371.820312 289.480469 371.488281 C 290.808594 360.46875 300.769531 355.488281 305.710938 358.328125 C 305.949219 358.488281 306.160156 359.050781 305.921875 359.121094 C 303.140625 357.511719 292.761719 368.03125 296.160156 371.121094 C 298.601562 371.03125 301.359375 372.03125 304.089844 372.648438 C 305.261719 366.570312 314.019531 361.449219 317.648438 365.328125 C 317.851562 365.558594 317.960938 366.128906 317.75 366.121094 C 314.421875 366.769531 310.078125 369.808594 309.410156 375.429688 C 316.421875 378.648438 315.660156 385.378906 314.480469 383.640625 C 307.921875 375.03125 293.820312 376.460938 283.140625 378.671875 C 276.921875 379.949219 268.140625 385.800781 264.441406 389.921875 C 275.710938 395.160156 265.441406 404.820312 260.730469 393.859375 C 252.929688 407.300781 245.320312 395.078125 254.371094 391.390625 C 243.511719 383.101562 255.070312 377.480469 258.839844 387.179688 Z M 258.839844 387.179688 "/>
<path style=" stroke:none;fill-rule:nonzero;fill:rgb(0%,0%,0%);fill-opacity:1;" d="M 240.050781 50.460938 L 240.050781 50.058594 C 190.648438 50.871094 141.238281 60.230469 91.808594 78.128906 L 90.089844 78.761719 C 90.089844 78.761719 89.878906 221.890625 90.089844 250 L 90.058594 250 C 90.070312 253.171875 90.378906 256.570312 90.75 260 L 240 260 L 240 250 L 240.089844 250 L 240.089844 50.140625 Z M 240.050781 50.460938 "/>
<path style=" stroke:none;fill-rule:nonzero;fill:rgb(92.54902%,94.117647%,94.509804%);fill-opacity:1;" d="M 115.421875 157.941406 C 117.980469 156.351562 120.558594 154.878906 123.179688 153.519531 C 122.800781 149.511719 122.351562 143.261719 123.460938 139.871094 C 125.480469 133.679688 131.289062 128.550781 138.089844 129.691406 C 138.460938 129.75 138.808594 130.21875 138.46875 130.390625 C 134.628906 132.371094 131.601562 135.300781 129.898438 139.441406 C 129.390625 140.660156 127.5 148.898438 130.300781 149.578125 C 130.601562 149.648438 130.890625 149.699219 131.191406 149.71875 C 136.179688 147.601562 141.328125 145.808594 146.671875 144.320312 C 146.648438 140.308594 146.820312 134.699219 148.199219 131.71875 C 150.898438 125.871094 157.488281 121.578125 164.589844 123.640625 C 164.96875 123.75 165.300781 124.261719 164.929688 124.390625 C 160.699219 125.828125 157.230469 128.308594 155.039062 132.179688 C 154.390625 133.320312 151.660156 141.21875 154.550781 142.28125 C 154.601562 142.300781 154.660156 142.320312 154.710938 142.328125 C 159.609375 141.261719 164.679688 140.398438 169.988281 139.710938 C 170.621094 135.71875 171.699219 130.488281 173.589844 127.738281 C 177.511719 122.03125 185.460938 118.179688 192.949219 120.820312 C 193.351562 120.960938 193.628906 121.511719 193.210938 121.601562 C 188.308594 122.730469 184.078125 124.980469 181.058594 128.730469 C 180.199219 129.789062 176.191406 137.070312 178.601562 138.75 C 178.859375 138.71875 179.109375 138.699219 179.378906 138.671875 C 183.640625 138.28125 188.449219 138.160156 193.109375 138.449219 C 194.25 136.039062 195.558594 133.730469 196.871094 132.390625 C 201.449219 127.671875 211.648438 126.03125 214.769531 130.03125 C 215.070312 130.238281 215.171875 130.808594 214.800781 130.820312 C 210.460938 130.988281 205.96875 131.621094 202.589844 134.628906 C 202.078125 135.089844 200.230469 136.941406 199.101562 139.089844 C 206.140625 140.210938 212.011719 142.601562 213.859375 146.960938 C 214.46875 148.410156 214.898438 149.660156 214.691406 151.210938 C 214.640625 151.621094 213.75 151.289062 213.449219 151.011719 C 204.53125 142.988281 190.488281 142.089844 171.5 145.339844 C 152.378906 148.609375 136.269531 154.179688 119.171875 162.148438 C 126.089844 169.769531 115.21875 175.660156 111.691406 167.621094 C 103.410156 177.371094 95.640625 163.230469 107.121094 161.539062 C 100.578125 151.5 113.679688 151.148438 115.421875 157.941406 Z M 117.730469 235.378906 C 120.011719 233.679688 122.921875 232.261719 125.269531 230.789062 C 122.828125 227.019531 121.46875 221.539062 122.351562 218.089844 C 123.960938 211.808594 127.910156 208.941406 132.820312 209.199219 C 133.160156 209.25 133.488281 209.699219 133.191406 209.890625 C 129.75 212.039062 129.199219 214.929688 128.230469 219.28125 C 127.710938 221.621094 129 225.558594 130.769531 226.898438 C 135.191406 224.578125 135.050781 224.890625 139.691406 223.261719 C 138.320312 219.179688 138.679688 213.820312 140.308594 210.398438 C 142.921875 204.898438 147.269531 202.929688 151.738281 203.820312 C 152.078125 203.910156 152.378906 204.390625 152.070312 204.519531 C 148.660156 205.96875 141.660156 211.378906 146.199219 221.691406 C 150.449219 220.210938 150.691406 219.980469 156.058594 218.839844 C 156.480469 214.820312 156.589844 209.988281 158.210938 207.148438 C 161.570312 201.261719 169.261719 198.589844 172.828125 199.980469 C 173.199219 200.101562 173.480469 200.640625 173.101562 200.75 C 171.070312 202.089844 168.480469 203.070312 165.859375 206.949219 C 164.449219 209.039062 161.839844 213.828125 162.589844 217.03125 C 166.46875 216.46875 171.488281 216.261719 175.761719 216.359375 C 176.710938 213.898438 178.53125 210.859375 179.671875 209.460938 C 180.449219 208.5 181.460938 207.828125 182.609375 207.378906 L 182.609375 221.890625 C 175.289062 221.539062 167.230469 222.339844 159.539062 224.128906 C 142.160156 228.191406 137.660156 231.261719 122.191406 239.390625 C 131.480469 245.101562 122.480469 253.789062 116.761719 245.179688 C 106.660156 256.46875 100.199219 241.910156 110.648438 239.75 C 102.808594 230.390625 115.761719 225.359375 117.730469 235.378906 Z M 113.210938 196.808594 C 115.808594 195.28125 119.390625 194.109375 122.039062 192.800781 C 121.75 188.78125 121.199219 185.121094 122.398438 181.75 C 124.570312 175.609375 127.828125 172.488281 133.160156 173.089844 C 133.519531 173.160156 133.859375 173.640625 133.53125 173.800781 C 129.648438 175.699219 130.648438 178.320312 128.851562 182.421875 C 128.308594 183.628906 126.960938 188.53125 129.730469 189.269531 C 130.03125 189.351562 130.320312 189.398438 130.621094 189.441406 C 135.578125 187.429688 133.839844 187.640625 139 186.328125 C 139.070312 182.488281 139.359375 177.121094 140.75 174.300781 C 143.460938 168.75 148.671875 165.960938 153.480469 167.148438 C 153.839844 167.261719 154.621094 168.230469 154.269531 168.351562 C 150.460938 169.550781 143.890625 177.128906 146.601562 183.128906 C 149.960938 182.578125 152.140625 181.539062 158.070312 180.78125 C 158.800781 176.800781 160.238281 172.78125 162.191406 170.070312 C 166.238281 164.441406 172.601562 163.371094 176.398438 165 C 176.800781 165.148438 177.300781 166.171875 176.878906 166.261719 C 171.960938 167.28125 171.789062 166.839844 168.671875 170.519531 C 166.988281 172.5 163.53125 177.769531 166.03125 180.191406 C 170.289062 179.890625 173.179688 179.410156 177.820312 179.800781 C 179.019531 177.421875 179.898438 174.199219 181.238281 172.878906 C 190 170 190 170 196.519531 170.910156 C 196.820312 171.128906 196.910156 171.699219 196.539062 171.699219 C 192.199219 171.769531 190.589844 173.011719 187.140625 175.949219 C 186.800781 176.25 185.960938 177.238281 185.089844 178.480469 L 182.601562 178.480469 L 182.601562 186.46875 C 175.410156 185.851562 167.71875 186.058594 160.378906 187.140625 C 141.191406 189.980469 134.128906 194.25 118.289062 201.828125 C 125.03125 209.601562 114.03125 215 110.691406 206.890625 C 102.179688 216.449219 94.75 202.140625 106.261719 200.710938 C 99.980469 190.5 111.398438 187.851562 113.210938 196.808594 Z M 240 330 L 115.570312 330 C 122.210938 341.589844 129.949219 353.128906 139 364.121094 C 140.648438 366.121094 142.441406 368.039062 144.171875 370 L 240 370 Z M 220 260 L 90 260 C 90.03125 271.71875 92.558594 285.429688 97.371094 300 L 220 300 Z M 220 260 "/>
<path style=" stroke:none;fill-rule:nonzero;fill:rgb(0%,0%,0%);fill-opacity:1;" d="M 389.96875 78.761719 L 388.25 78.128906 C 338.828125 60.230469 289.421875 50.871094 240.011719 50.058594 L 240 50.140625 L 240 250 L 389.96875 250 L 389.96875 249.988281 C 390.179688 221.890625 389.96875 78.761719 389.96875 78.761719 Z M 389.96875 78.761719 "/>
<path style=" stroke:none;fill-rule:nonzero;fill:rgb(92.54902%,94.117647%,94.509804%);fill-opacity:1;" d="M 300 170 L 390 170 L 390 210 L 300 210 Z M 240 90 L 390 90 L 390 130 L 240 130 Z M 240 90 "/>
<path style=" stroke:none;fill-rule:nonzero;fill:rgb(0%,0%,0%);fill-opacity:1;" d="M 386.570312 132.710938 C 337.898438 115.078125 288.589844 105.738281 240.011719 104.941406 C 191.429688 105.738281 142.121094 115.089844 93.460938 132.710938 L 85.03125 135.769531 L 85.03125 75.210938 L 90.03125 73.371094 C 139.789062 55.359375 190.210938 45.820312 239.898438 45 C 289.808594 45.820312 340.230469 55.359375 389.980469 73.371094 L 395 75.210938 L 395 135.769531 Z M 386.570312 132.710938 "/>
<path style=" stroke:none;fill-rule:nonzero;fill:rgb(92.54902%,94.117647%,94.509804%);fill-opacity:1;" d="M 240.039062 50 C 289.441406 50.808594 338.851562 60.171875 388.28125 78.070312 L 390 78.699219 L 390 128.640625 L 388.28125 128.011719 C 338.859375 110.109375 289.449219 100.75 240.039062 99.941406 L 239.988281 100.339844 L 239.988281 99.941406 C 190.589844 100.75 141.179688 110.109375 91.75 128.011719 L 90.03125 128.640625 L 90.03125 78.699219 L 91.75 78.070312 C 141.171875 60.171875 190.578125 50.808594 239.988281 50 L 240.039062 50 M 240.121094 40 L 239.988281 40 C 189.558594 40.828125 138.589844 50.46875 88.351562 68.671875 L 86.601562 69.300781 L 80.03125 71.699219 L 80.03125 142.929688 L 93.449219 138.039062 L 95.171875 137.410156 C 143.261719 119.988281 192 110.75 240.011719 109.941406 C 288.019531 110.738281 336.75 119.988281 384.871094 137.410156 L 386.578125 138.03125 L 400 142.929688 L 400 71.699219 L 393.421875 69.300781 L 391.699219 68.679688 C 341.441406 50.46875 290.46875 40.828125 240.199219 40 Z M 240.121094 40 "/>
<path style=" stroke:none;fill-rule:nonzero;fill:rgb(92.54902%,94.117647%,94.509804%);fill-opacity:1;" d="M 111.96875 80.03125 C 115.558594 78.898438 119.148438 77.769531 122.789062 76.75 C 124.128906 76.378906 125.480469 76.03125 126.851562 75.738281 C 128.289062 75.460938 129.828125 75.320312 131.238281 75.769531 L 131.71875 76 C 132.210938 76.320312 132.5 76.640625 132.75 77.148438 C 133.121094 78.050781 133.261719 78.980469 133.371094 79.941406 C 133.570312 82.011719 133.570312 84.101562 133.410156 86.179688 C 133.261719 87.820312 133.070312 89.5 132.378906 91.011719 C 132.058594 91.628906 131.699219 92.160156 131.238281 92.691406 C 130.871094 93.078125 130.5 93.421875 130.070312 93.75 C 129.210938 94.398438 128.300781 94.898438 127.308594 95.351562 C 124.96875 96.398438 122.511719 97.128906 120.070312 97.898438 C 115.800781 99.269531 111.570312 100.75 107.339844 102.21875 L 107.328125 109.820312 C 105.210938 110.648438 103.078125 111.488281 100.960938 112.328125 L 100.960938 83.570312 C 104.628906 82.378906 108.289062 81.191406 111.96875 80.03125 Z M 107.339844 97.101562 C 111.601562 95.671875 115.851562 94.238281 120.128906 92.871094 C 121.429688 92.449219 122.761719 92.070312 124.03125 91.550781 L 125 91.011719 L 125.441406 90.691406 L 125.828125 90.328125 L 126.171875 89.929688 L 126.460938 89.488281 L 126.800781 88.699219 C 126.929688 88.199219 127.011719 87.730469 127.058594 87.21875 C 127.148438 85.96875 127.171875 84.699219 126.820312 83.488281 L 126.519531 82.839844 L 126.199219 82.441406 L 125.800781 82.089844 L 125.320312 81.859375 L 124.820312 81.71875 L 124.320312 81.671875 L 123.808594 81.679688 C 122.519531 81.828125 121.25 82.210938 120.019531 82.570312 C 115.769531 83.828125 111.558594 85.238281 107.339844 86.601562 Z M 161.101562 66.960938 C 163.949219 66.441406 166.808594 65.96875 169.699219 65.71875 C 170.648438 65.640625 171.570312 65.601562 172.519531 65.660156 C 172.980469 65.71875 173.398438 65.789062 173.839844 65.921875 C 174.210938 66.050781 174.511719 66.191406 174.851562 66.390625 C 175.148438 66.601562 175.378906 66.800781 175.621094 67.058594 C 175.851562 67.371094 176.019531 67.648438 176.191406 67.988281 C 176.390625 68.480469 176.53125 68.949219 176.640625 69.460938 C 176.96875 71.210938 177.050781 72.980469 177.140625 74.75 C 177.230469 76.761719 177.238281 78.761719 177.179688 80.769531 C 177.148438 81.609375 177.109375 82.449219 177.070312 83.300781 C 176.96875 84.839844 176.878906 86.410156 176.519531 87.921875 C 176.429688 88.289062 176.308594 88.648438 176.179688 89.011719 C 175.929688 89.578125 175.648438 90.058594 175.28125 90.558594 L 174.328125 91.511719 L 173.121094 92.308594 C 172.628906 92.558594 172.140625 92.761719 171.628906 92.949219 C 169.558594 93.601562 167.410156 94.03125 165.300781 94.460938 C 160.960938 95.351562 156.609375 96.179688 152.261719 97.011719 C 150.148438 97.410156 148.050781 97.808594 145.941406 98.101562 C 145.351562 98.171875 144.769531 98.21875 144.191406 98.230469 L 142.871094 98.101562 C 142.511719 98 142.21875 97.898438 141.890625 97.75 L 141.171875 97.199219 L 140.621094 96.390625 L 139.761719 92.101562 L 139.738281 80.558594 C 139.828125 79.199219 139.988281 77.859375 140.300781 76.53125 L 140.648438 75.390625 C 140.910156 74.78125 141.191406 74.261719 141.570312 73.710938 L 142.539062 72.640625 L 143.328125 72 C 144.191406 71.421875 145.058594 70.980469 146.050781 70.609375 L 150.800781 69.199219 C 154.199219 68.328125 157.640625 67.609375 161.101562 66.960938 Z M 157.789062 72.878906 L 150.960938 74.488281 C 150.410156 74.660156 149.878906 74.839844 149.359375 75.070312 L 148.851562 75.339844 L 148.371094 75.671875 L 147.929688 76.03125 L 147.539062 76.441406 L 147.179688 76.898438 L 146.878906 77.378906 C 146.671875 77.828125 146.511719 78.238281 146.390625 78.71875 C 146.03125 80.359375 146 82.058594 145.96875 83.738281 C 145.949219 85.5 145.921875 87.308594 146.28125 89.050781 L 146.5 89.730469 L 146.839844 90.371094 L 147.320312 90.921875 L 147.910156 91.351562 L 148.578125 91.648438 L 149.300781 91.828125 L 150.058594 91.890625 C 150.53125 91.871094 150.96875 91.839844 151.441406 91.78125 C 154.078125 91.429688 156.71875 90.878906 159.328125 90.359375 C 161.5 89.929688 163.671875 89.511719 165.820312 88.949219 C 166.289062 88.828125 166.71875 88.679688 167.179688 88.519531 L 167.890625 88.179688 L 168.53125 87.769531 L 169.101562 87.28125 L 169.589844 86.71875 L 170 86.109375 L 170.308594 85.429688 L 170.511719 84.730469 C 170.871094 82.839844 170.828125 80.910156 170.808594 79 C 170.789062 78 170.769531 76.988281 170.671875 75.988281 L 170.550781 75.191406 C 170.421875 74.628906 170.28125 74.140625 170.050781 73.609375 L 169.800781 73.160156 L 169.488281 72.75 L 169.109375 72.378906 L 168.671875 72.078125 L 168.199219 71.859375 L 167.699219 71.738281 L 166.601562 71.621094 C 165.46875 71.609375 164.359375 71.710938 163.238281 71.878906 C 161.417969 72.171875 159.609375 72.53125 157.789062 72.878906 Z M 201.429688 62.140625 C 204.730469 61.890625 208.03125 61.679688 211.351562 61.578125 C 212.058594 61.558594 212.78125 61.550781 213.488281 61.558594 C 214.28125 61.589844 214.949219 61.75 215.660156 62.089844 C 215.921875 62.21875 216.148438 62.371094 216.390625 62.539062 C 216.921875 62.960938 217.25 63.378906 217.578125 63.960938 C 217.800781 64.410156 217.960938 64.839844 218.078125 65.320312 C 218.28125 66.398438 218.300781 67.53125 218.320312 68.621094 C 218.339844 69.988281 218.339844 71.359375 218.21875 72.71875 C 218.171875 73.261719 218.109375 73.789062 217.960938 74.308594 L 217.75 74.859375 C 217.550781 75.238281 217.359375 75.539062 217.089844 75.871094 L 216.488281 76.390625 C 216.210938 76.570312 215.929688 76.730469 215.621094 76.859375 C 215.171875 77.03125 214.710938 77.140625 214.238281 77.238281 L 210.628906 77.96875 L 214.191406 79.949219 C 214.671875 80.28125 215.078125 80.621094 215.480469 81.039062 L 215.910156 81.550781 C 216.46875 82.328125 216.859375 83.109375 217.179688 84.011719 C 217.679688 85.539062 217.941406 87.128906 217.988281 88.730469 C 215.890625 88.820312 213.78125 88.910156 211.691406 89.019531 C 211.589844 87.890625 211.371094 86.800781 211.058594 85.710938 L 210.578125 84.480469 L 210.261719 83.898438 L 209.890625 83.339844 L 209.449219 82.851562 L 208.898438 82.421875 L 208.261719 82.078125 C 207.871094 81.96875 207.5 81.871094 207.089844 81.808594 C 206.25 81.710938 205.398438 81.78125 204.558594 81.839844 C 200.488281 82.140625 196.421875 82.460938 192.359375 82.851562 L 190.828125 82.988281 L 190.828125 90.640625 C 188.699219 90.871094 186.570312 91.101562 184.449219 91.339844 L 184.449219 63.761719 C 190.101562 63.128906 195.761719 62.570312 201.429688 62.140625 Z M 190.828125 77.949219 C 195.058594 77.558594 199.300781 77.199219 203.539062 76.878906 C 205 76.769531 206.460938 76.660156 207.910156 76.511719 C 208.328125 76.460938 208.730469 76.378906 209.148438 76.28125 L 209.640625 76.121094 L 210.109375 75.898438 L 210.539062 75.628906 L 210.921875 75.289062 L 211.238281 74.890625 L 211.480469 74.460938 C 211.609375 74.121094 211.699219 73.808594 211.78125 73.449219 C 211.960938 72.28125 211.96875 71.101562 211.859375 69.921875 C 211.789062 69.46875 211.710938 69.078125 211.550781 68.640625 L 211.320312 68.21875 L 211.011719 67.820312 L 210.628906 67.480469 L 210.199219 67.21875 L 209.738281 67.019531 L 209.261719 66.898438 C 208.839844 66.828125 208.449219 66.789062 208.03125 66.789062 C 205.949219 66.808594 203.851562 66.988281 201.78125 67.140625 C 198.128906 67.410156 194.480469 67.738281 190.828125 68.058594 Z M 235.730469 84.328125 C 238.128906 84.351562 240.539062 84.351562 242.949219 84.351562 C 244.601562 84.351562 246.28125 84.410156 247.921875 84.238281 C 248.28125 84.191406 248.628906 84.128906 248.980469 84.058594 C 249.320312 83.960938 249.601562 83.859375 249.910156 83.699219 L 250.28125 83.421875 L 250.589844 83.070312 L 250.828125 82.679688 L 250.988281 82.269531 L 251.179688 81.429688 L 251.21875 80.171875 L 251 78.769531 L 250.890625 78.421875 L 250.699219 78.050781 L 250.421875 77.699219 L 250.03125 77.378906 L 249.609375 77.148438 L 248.710938 76.839844 L 247.089844 76.628906 L 245.128906 76.601562 L 231.820312 76.550781 C 230.519531 76.539062 229.199219 76.53125 227.921875 76.320312 C 227.578125 76.238281 227.25 76.171875 226.929688 76.019531 L 226.53125 75.800781 L 226.171875 75.539062 L 225.839844 75.238281 L 225.539062 74.898438 L 225.28125 74.519531 C 225 74 224.789062 73.5 224.648438 72.921875 C 224.339844 71.480469 224.320312 69.96875 224.328125 68.5 C 224.378906 66.710938 224.46875 64.828125 225.25 63.179688 C 225.421875 62.878906 225.589844 62.628906 225.820312 62.378906 C 226.710938 61.570312 227.96875 61.261719 229.140625 61.019531 C 230.378906 60.78125 231.640625 60.75 232.898438 60.710938 C 235.78125 60.648438 238.679688 60.660156 241.570312 60.648438 C 246.359375 60.699219 251.160156 60.769531 255.949219 60.878906 L 255.949219 65.050781 C 249.609375 64.929688 243.261719 64.808594 236.910156 64.851562 C 235.46875 64.871094 234.019531 64.878906 232.589844 65.019531 C 232.269531 65.058594 231.980469 65.121094 231.671875 65.191406 L 231.148438 65.429688 L 230.691406 65.828125 L 230.390625 66.300781 L 230.210938 66.78125 L 230.089844 67.648438 C 230.070312 68.371094 230.070312 69.078125 230.128906 69.800781 L 230.21875 70.28125 L 230.398438 70.808594 L 230.769531 71.351562 L 231.390625 71.78125 L 232.039062 71.898438 C 238.699219 72.011719 245.371094 72.191406 252.019531 72.429688 L 252.839844 72.53125 C 253.871094 72.78125 254.910156 73.238281 255.699219 73.949219 C 256.058594 74.320312 256.339844 74.699219 256.558594 75.160156 C 257.160156 76.609375 257.289062 78.269531 257.339844 79.820312 C 257.359375 81.621094 257.269531 83.441406 256.761719 85.179688 C 256.671875 85.429688 256.578125 85.679688 256.480469 85.929688 L 256.140625 86.5 C 255.871094 86.851562 255.601562 87.121094 255.25 87.410156 C 254.628906 87.828125 253.988281 88.121094 253.25 88.300781 C 252.179688 88.511719 251.050781 88.570312 249.949219 88.640625 C 246.679688 88.808594 243.421875 88.800781 240.160156 88.78125 C 235.03125 88.808594 229.910156 88.878906 224.78125 88.96875 C 224.761719 87.488281 224.761719 86.011719 224.761719 84.539062 C 228.21875 84.449219 231.671875 84.378906 235.128906 84.351562 L 235.730469 84.351562 Z M 279.558594 90.121094 C 276.871094 89.890625 274.179688 89.671875 271.519531 89.289062 C 270.351562 89.109375 269.179688 88.898438 268.058594 88.539062 C 267.46875 88.339844 266.941406 88.089844 266.421875 87.789062 C 266.050781 87.558594 265.75 87.320312 265.441406 87.03125 C 265.140625 86.71875 264.910156 86.441406 264.679688 86.089844 C 264.46875 85.710938 264.308594 85.351562 264.171875 84.949219 C 263.769531 83.5 263.679688 81.96875 263.609375 80.480469 C 263.488281 76.78125 263.460938 73.078125 263.621094 69.378906 L 263.671875 68.460938 C 263.789062 66.761719 263.941406 65.070312 264.988281 63.628906 C 265.328125 63.210938 265.699219 62.898438 266.179688 62.621094 C 267.488281 61.941406 269.058594 61.730469 270.519531 61.621094 C 272.070312 61.519531 273.621094 61.53125 275.179688 61.558594 C 278.28125 61.640625 281.390625 61.800781 284.480469 62.058594 C 288.929688 62.449219 293.390625 62.859375 297.828125 63.328125 L 297.828125 68.199219 C 291.941406 67.640625 286.03125 67.140625 280.140625 66.761719 C 278.230469 66.640625 276.289062 66.511719 274.378906 66.621094 L 273.441406 66.738281 L 272.800781 66.929688 L 272.210938 67.210938 L 271.660156 67.589844 L 271.191406 68.058594 L 270.839844 68.601562 L 270.558594 69.199219 C 270.441406 69.589844 270.339844 69.960938 270.25 70.359375 C 269.941406 72.230469 269.929688 74.148438 269.941406 76.03125 C 269.960938 77.589844 269.980469 79.171875 270.261719 80.710938 C 270.339844 81.101562 270.449219 81.449219 270.570312 81.828125 L 270.871094 82.410156 L 271.261719 82.941406 L 271.730469 83.398438 L 272.269531 83.78125 L 272.859375 84.089844 L 273.488281 84.320312 C 274.011719 84.441406 274.511719 84.550781 275.039062 84.621094 C 276.789062 84.859375 278.570312 85.011719 280.351562 85.160156 C 286.351562 85.628906 292.339844 86.230469 298.351562 86.878906 C 298.359375 88.378906 298.378906 89.871094 298.398438 91.359375 L 298.398438 91.828125 C 294.648438 91.441406 290.890625 91.058594 287.121094 90.738281 C 284.601562 90.511719 282.070312 90.328125 279.558594 90.121094 Z M 320 77.710938 C 324.910156 78.558594 329.800781 79.511719 334.691406 80.46875 L 334.691406 69.488281 C 336.96875 69.960938 339.238281 70.46875 341.519531 70.980469 L 341.519531 99.320312 C 339.238281 98.78125 336.96875 98.25 334.691406 97.730469 L 334.691406 86.558594 C 330.789062 85.769531 326.878906 85 322.96875 84.289062 C 319.328125 83.621094 315.691406 83 312.058594 82.398438 L 312.058594 93.429688 C 309.78125 93.078125 307.511719 92.730469 305.230469 92.410156 L 305.230469 64.628906 C 307.511719 64.921875 309.789062 65.210938 312.058594 65.539062 L 312.058594 76.390625 C 314.691406 76.820312 317.351562 77.261719 320 77.710938 Z M 371.949219 79.558594 C 374.359375 80.339844 376.78125 81.128906 379.191406 81.941406 L 379.191406 86.601562 C 372.148438 84.230469 365.050781 82 357.921875 79.910156 L 355.558594 79.199219 L 355.558594 86.261719 C 360.769531 87.78125 365.960938 89.339844 371.140625 91 C 373.421875 91.730469 375.699219 92.488281 377.980469 93.25 L 377.980469 97.449219 C 371.320312 95.238281 364.621094 93.160156 357.878906 91.191406 L 355.550781 90.511719 L 355.550781 98.058594 C 360.558594 99.53125 365.558594 101.039062 370.53125 102.609375 C 373.46875 103.539062 376.410156 104.488281 379.339844 105.460938 L 379.339844 110.300781 C 369.769531 107.191406 360.128906 104.289062 350.429688 101.589844 L 349.308594 101.28125 L 349.308594 72.878906 C 356.921875 74.929688 364.460938 77.171875 371.949219 79.558594 Z M 371.949219 79.558594 "/>
<path style=" stroke:none;fill-rule:nonzero;fill:rgb(0%,0%,0%);fill-opacity:1;" d="M 240 315 C 204.160156 315 175 285.839844 175 250 L 175 175 L 305 175 L 305 250 C 305 285.839844 275.839844 315 240 315 Z M 240 315 "/>
<path style=" stroke:none;fill-rule:nonzero;fill:rgb(92.54902%,94.117647%,94.509804%);fill-opacity:1;" d="M 300 180 L 300 250 C 300 283.140625 273.140625 310 240 310 C 206.859375 310 180 283.140625 180 250 L 180 180 L 300 180 M 310 170 L 170 170 L 170 250 C 170 288.601562 201.398438 320 240 320 C 278.601562 320 310 288.601562 310 250 Z M 310 170 "/>
<path style=" stroke:none;fill-rule:nonzero;fill:rgb(92.54902%,94.117647%,94.509804%);fill-opacity:1;" d="M 210.039062 268.21875 C 210.621094 268.328125 211.921875 266.621094 212.378906 265.691406 C 212.839844 264.761719 212.738281 263.140625 212.640625 262.910156 C 212.53125 262.671875 211.078125 263.160156 210.300781 263.160156 C 209.519531 263.160156 209.019531 263.019531 207.96875 262.910156 C 206.910156 262.789062 207.058594 260.421875 206.929688 259.109375 C 206.621094 255.828125 206.46875 252.53125 206.671875 249.238281 C 206.730469 248.328125 206.921875 247.179688 207.710938 246.710938 C 208.75 246.089844 210.148438 246.261719 211.339844 246.460938 C 213.75 246.859375 215.941406 248.101562 218.339844 248.480469 C 219.710938 248.699219 221.148438 248.558594 222.5 248.230469 C 223.621094 247.960938 224.5 247.058594 225.609375 246.71875 C 226.191406 246.539062 226.890625 246.449219 227.429688 246.71875 C 229.300781 247.671875 230.601562 249.628906 232.621094 250.261719 C 235.089844 251.03125 237.800781 250.671875 240.398438 250.769531 C 242.46875 250.839844 244.578125 250.480469 246.621094 250.769531 C 247.570312 250.910156 249.03125 251.109375 249.21875 252.03125 C 249.488281 253.359375 247.308594 254.511719 247.660156 255.828125 C 248.199219 257.800781 250.570312 258.828125 251.558594 260.628906 C 251.921875 261.300781 251.910156 262.230469 251.558594 262.910156 C 251.21875 263.550781 250.179688 263.601562 249.738281 264.171875 C 249.109375 264.988281 249.050781 266.109375 248.449219 266.949219 C 247.820312 267.828125 246.980469 268.558594 246.109375 269.230469 C 244.210938 270.679688 242.289062 272.171875 240.148438 273.28125 C 239.460938 273.640625 238.148438 272.839844 237.820312 273.53125 C 237.210938 274.789062 236.621094 276.421875 236 277.328125 C 235.378906 278.230469 234.621094 278.28125 234.179688 278.839844 C 233.738281 279.398438 233.089844 280.429688 233.398438 280.609375 C 233.71875 280.789062 236.539062 280.738281 237.550781 280.609375 C 238.570312 280.480469 239.199219 280.378906 239.511719 280.128906 C 239.828125 279.878906 239.289062 279.03125 239.109375 277.320312 C 238.941406 275.601562 243.828125 274.878906 246.109375 273.519531 C 248.667969 272.011719 251.058594 270.210938 253.628906 268.71875 C 254.699219 268.101562 256.089844 268.019531 257 267.199219 C 257.449219 266.789062 257.261719 266.03125 257.261719 265.429688 C 257.261719 263.988281 256.929688 262.570312 257 261.128906 C 257.03125 260.429688 257.011719 259.601562 257.519531 259.109375 C 257.949219 258.691406 258.800781 258.558594 259.328125 258.851562 C 260.191406 259.328125 260.351562 260.570312 261.140625 261.128906 C 262.300781 261.949219 263.761719 262.269531 265.039062 262.898438 C 266.179688 263.449219 268.210938 263.441406 268.410156 264.671875 C 268.761719 266.78125 267.269531 268.808594 266.328125 270.738281 C 265.859375 271.71875 264.859375 272.359375 264.261719 273.269531 C 263.898438 273.808594 263.929688 274.578125 263.480469 275.039062 C 262.339844 276.210938 260.769531 276.929688 259.589844 278.070312 C 258.75 278.878906 257.980469 279.800781 257.519531 280.851562 C 257.261719 281.441406 257.140625 282.070312 256.738281 282.628906 C 256.339844 283.179688 255.550781 283.351562 255.191406 284.140625 C 254.820312 284.929688 253.710938 287.339844 254.667969 287.171875 C 255.621094 287.019531 260.679688 286.128906 260.890625 285.660156 C 261.101562 285.179688 260.621094 283.960938 260.371094 282.371094 C 260.121094 280.78125 263.691406 279.628906 265.558594 278.578125 C 266.578125 278 268 278.28125 268.929688 277.570312 C 269.480469 277.128906 269.179688 276.191406 269.441406 275.550781 C 269.871094 274.5 270.238281 273.371094 271 272.519531 C 272 271.390625 273.769531 270.988281 274.628906 269.738281 C 275.578125 268.351562 276.480469 266.589844 276.179688 264.929688 C 275.960938 263.640625 274.199219 263.140625 273.328125 262.148438 C 272.640625 261.371094 271.820312 260.609375 271.519531 259.621094 C 271.089844 258.238281 270.769531 256.679688 271.261719 255.320312 C 271.871094 253.621094 273.550781 252.488281 274.628906 251.019531 C 275.539062 249.789062 276.878906 248.710938 277.230469 247.21875 C 277.621094 245.480469 276.851562 243.679688 276.710938 241.910156 C 276.679688 241.570312 276.449219 241.121094 276.710938 240.898438 C 277.941406 239.859375 279.238281 238.570312 280.859375 238.371094 C 282.320312 238.191406 283.550781 239.679688 285.019531 239.878906 C 286.558594 240.101562 288.21875 240.148438 289.691406 239.628906 C 290.179688 239.449219 290.320312 238.46875 289.949219 238.109375 C 288.988281 237.171875 286.71875 237.601562 286.320312 236.339844 C 285.980469 235.320312 288.128906 235.011719 288.648438 234.058594 C 289.371094 232.738281 290.039062 231.25 289.949219 229.761719 C 289.917969 229.25 288.828125 229.238281 288.390625 229.511719 C 287.699219 229.941406 287.71875 231.019531 287.089844 231.539062 C 286.609375 231.929688 285.898438 232.089844 285.28125 232.050781 C 284.621094 232 283.871094 231.789062 283.460938 231.289062 C 283.078125 230.828125 282.691406 229.851562 283.199219 229.519531 C 284.371094 228.761719 286 229.121094 287.359375 228.761719 C 287.921875 228.609375 288.691406 228.519531 288.910156 228 C 289.289062 227.148438 289.28125 226.078125 288.910156 225.21875 C 288.75 224.820312 288.039062 224.859375 287.621094 224.960938 C 287.011719 225.121094 286.679688 225.96875 286.058594 225.96875 C 285.210938 225.96875 284.269531 225.589844 283.71875 224.960938 C 283.269531 224.441406 283.171875 223.550781 283.460938 222.941406 C 283.929688 221.96875 285.339844 221.628906 285.800781 220.660156 C 286.429688 219.339844 286.890625 217.789062 286.570312 216.359375 C 286.441406 215.761719 285.308594 215.558594 284.761719 215.851562 C 284.078125 216.210938 284.121094 217.230469 283.71875 217.878906 C 283.171875 218.761719 282.871094 220 281.898438 220.410156 C 281.269531 220.679688 280.25 220.058594 280.089844 219.398438 C 279.828125 218.300781 280.460938 217.160156 280.871094 216.109375 C 281.328125 214.949219 281.898438 213.800781 282.691406 212.820312 C 283.46875 211.828125 284.898438 211.378906 285.539062 210.289062 C 286.019531 209.480469 286.339844 208.269531 285.800781 207.511719 C 285.398438 206.960938 284.308594 207.398438 283.71875 207.761719 C 283.230469 208.058594 283.46875 209.039062 282.949219 209.28125 C 281.671875 209.871094 280.03125 209.390625 278.789062 210.039062 C 277.820312 210.550781 277.300781 211.648438 276.710938 212.570312 C 275.621094 214.261719 275.558594 217.300781 275.148438 217.628906 C 274.691406 218.011719 273.699219 217.859375 273.339844 217.378906 C 272.828125 216.691406 273.671875 215.480469 273.078125 214.851562 C 272.621094 214.351562 271.539062 214.421875 271.011719 214.851562 C 270.371094 215.359375 270.230469 216.328125 270.230469 217.128906 C 270.230469 218.421875 270.398438 219.78125 271.011719 220.929688 C 271.988281 222.800781 273.648438 224.269531 274.910156 225.988281 C 276.171875 227.730469 277.769531 229.308594 278.53125 231.308594 C 279.019531 232.570312 279.101562 234.121094 278.53125 235.359375 C 278.039062 236.460938 276.910156 237.730469 275.691406 237.640625 C 274.011719 237.511719 272.949219 235.730469 271.539062 234.859375 C 270.191406 234.039062 268.960938 232.828125 267.378906 232.578125 C 263.960938 232.039062 260.460938 232.578125 257 232.578125 C 253.890625 232.578125 250.75 232.988281 247.660156 232.578125 C 246.160156 232.378906 244.601562 231.828125 243.511719 230.808594 C 242.480469 229.839844 241.78125 228.410156 241.691406 227.011719 C 241.589844 225.191406 242.210938 223.359375 242.988281 221.699219 C 243.539062 220.5 244.421875 219.328125 245.589844 218.660156 C 246.480469 218.148438 247.910156 217.78125 248.878906 218.148438 C 249.851562 218.519531 252.628906 222.378906 253.289062 222.171875 C 253.941406 221.960938 253.5 218.679688 253.109375 217.648438 C 252.519531 216.121094 250.808594 215.148438 250.25 213.601562 C 250.089844 213.148438 250.800781 212.558594 251.300781 212.589844 C 252.261719 212.660156 253.179688 213.210938 253.898438 213.851562 C 254.28125 214.199219 256.230469 216.820312 256.75 216.691406 C 257.261719 216.558594 256.519531 212.738281 255.96875 211.578125 C 255.230469 210.011719 252.878906 208.828125 252.679688 208.449219 C 252.519531 208.121094 252.730469 207.820312 253.109375 207.789062 C 254 207.71875 254.851562 208.238281 255.710938 208.550781 C 256.511719 208.839844 257.640625 209.769531 258.050781 209.558594 C 258.449219 209.359375 258 208.070312 257.53125 207.539062 C 255.941406 205.71875 253.691406 204.53125 252.078125 202.730469 C 251.238281 201.789062 250.339844 200.691406 250.261719 199.441406 C 250.21875 198.671875 251.089844 197.988281 251.828125 197.671875 C 253.109375 197.101562 254.859375 196.820312 256.050781 196.109375 C 256.511719 195.851562 256.199219 195.589844 255.699219 195.390625 C 253.828125 194.628906 251.761719 194.378906 249.738281 194.378906 C 248.570312 194.378906 247.488281 195.039062 246.371094 195.390625 C 245.589844 195.628906 244.859375 196.148438 244.039062 196.148438 C 242.628906 196.148438 240.921875 196.328125 239.878906 195.390625 C 239.238281 194.808594 240 193.621094 240.398438 192.859375 C 240.800781 192.121094 241.589844 191.648438 242.21875 191.089844 C 242.621094 190.730469 244 190.238281 243.511719 190.078125 C 243.03125 189.921875 240.699219 190.011719 239.359375 190.328125 C 238.238281 190.601562 237.089844 191.070312 236.25 191.851562 C 235.460938 192.570312 235.621094 194.101562 234.691406 194.628906 C 232.921875 195.640625 232.019531 195.28125 230.171875 196.140625 C 229.679688 196.371094 228.75 197.589844 228.210938 197.660156 C 225.800781 197.980469 221.191406 196.78125 220.949219 197.148438 C 220.710938 197.519531 224.648438 199.738281 225.359375 201.699219 C 225.679688 202.578125 223.460938 201.339844 222.511719 201.449219 C 221.089844 201.601562 219.628906 201.839844 218.351562 202.460938 C 217.148438 203.050781 216.191406 204.058594 215.238281 204.988281 C 214.371094 205.839844 213.878906 207.058594 212.898438 207.769531 C 212.410156 208.128906 211.511719 207.621094 211.179688 208.109375 C 210.789062 208.679688 210.648438 210.011719 211.339844 210.050781 L 215.488281 210.300781 C 216.269531 210.351562 214.800781 211.941406 215.230469 212.582031 C 215.558594 213.070312 216.488281 212.820312 217.050781 212.582031 C 217.710938 212.28125 217.988281 211.460938 218.609375 211.058594 C 219.320312 210.601562 220.089844 210.011719 220.941406 210.050781 C 221.988281 210.101562 223.328125 210.410156 223.800781 211.308594 C 224.238281 212.171875 223.191406 213.148438 223.019531 214.089844 C 222.839844 215.089844 223.519531 216.429688 222.761719 217.121094 C 220.539062 219.160156 219.808594 217.441406 216.539062 221.421875 C 213.929688 224.601562 215.089844 222.871094 214.210938 226.988281 C 214.039062 227.800781 213.859375 228.78125 213.167969 229.269531 C 212.460938 229.761719 211.328125 229.941406 210.570312 229.519531 C 209.140625 228.730469 208.148438 227.289062 207.199219 225.980469 C 206.660156 225.238281 206.960938 223.921875 206.160156 223.449219 C 205.128906 222.839844 203.691406 222.820312 202.53125 223.199219 C 201.648438 223.488281 201.21875 224.480469 200.710938 225.230469 C 199.570312 226.859375 198.699219 228.640625 197.589844 230.289062 C 196.699219 231.601562 195.5 232.699219 194.738281 234.089844 C 194.359375 234.78125 194.53125 235.660156 194.21875 236.371094 C 193.351562 238.308594 192.621094 240.308594 191.621094 242.191406 C 191.21875 242.941406 190.230469 243.390625 190.058594 244.21875 C 189.859375 245.140625 190.210938 246.929688 190.578125 247 C 190.960938 247.070312 192.460938 245.941406 193.441406 245.480469 C 194.449219 245.011719 196.417969 244.53125 196.550781 244.21875 C 196.679688 243.910156 195.519531 242.871094 194.988281 242.191406 C 193.96875 240.859375 196.21875 239.089844 197.058594 237.640625 C 197.359375 237.121094 198.089844 236.910156 198.359375 236.378906 C 198.96875 235.191406 199.050781 233.78125 199.648438 232.582031 C 200.429688 231.050781 201.238281 229.460938 202.511719 228.28125 C 203.089844 227.75 204.191406 227.332031 204.839844 227.769531 C 205.980469 228.558594 206.238281 230.128906 206.917969 231.320312 C 207.449219 232.238281 208.191406 233.082031 208.480469 234.101562 C 208.71875 234.988281 207.878906 236.160156 208.480469 236.878906 C 209.230469 237.789062 210.648438 238.03125 211.851562 238.140625 L 214.449219 238.398438 L 214.710938 241.941406 C 214.808594 243.289062 211.917969 242.179688 210.550781 242.449219 C 209.320312 242.691406 208.140625 243.199219 206.917969 243.460938 C 205.730469 243.710938 203.519531 242.800781 203.289062 243.96875 C 202.300781 248.941406 203.53125 254.089844 203.808594 259.148438 C 203.878906 260.511719 203.039062 262.671875 204.328125 263.199219 L 206.890625 264.238281 C 207.328125 265.238281 207.667969 266.539062 208.21875 267.238281 C 208.769531 267.910156 209.460938 268.109375 210.039062 268.21875 Z M 240 100 L 250 100 L 250 180 L 240 180 Z M 230 310 L 240 310 L 240 430 L 230 430 Z M 300 250 L 390 250 L 390 260 L 300 260 Z M 300 250 "/>
</g>
</svg>
