<?xml version="1.0" encoding="UTF-8"?>
<svg xmlns="http://www.w3.org/2000/svg" xmlns:xlink="http://www.w3.org/1999/xlink" viewBox="0 0 400 400" width="400px" height="400px">
<g id="surface8990229">
<path style=" stroke:none;fill-rule:nonzero;fill:rgb(0%,0%,0%);fill-opacity:1;" d="M 200 56 C 120.519531 56 56 120.519531 56 200 C 56 279.480469 120.519531 344 200 344 C 279.480469 344 344 279.480469 344 200 C 344 120.519531 279.480469 56 200 56 Z M 200 64 C 275.15625 64 336 124.84375 336 200 C 336 275.15625 275.15625 336 200 336 C 124.84375 336 64 275.15625 64 200 C 64 124.84375 124.84375 64 200 64 Z M 200 84 C 135.980469 84 84 135.980469 84 200 C 84 264.019531 135.980469 316 200 316 C 264.019531 316 316 264.019531 316 200 C 316 135.980469 264.019531 84 200 84 Z M 197.382812 92.0625 L 175.476562 187.867188 L 104.867188 251.195312 C 96.660156 235.964844 92 218.53125 92 200 C 92 141.183594 138.902344 93.453125 197.382812 92.0625 Z M 202.625 92.0625 C 261.101562 93.457031 308 141.1875 308 200 C 308 218.644531 303.292969 236.179688 294.992188 251.476562 L 224.953125 187.875 Z M 202 106.976562 L 220.828125 187.820312 L 202 196.828125 L 202 166 C 202.007812 165.457031 201.796875 164.9375 201.414062 164.554688 C 201.03125 164.171875 200.511719 163.960938 199.96875 163.96875 C 199.4375 163.976562 198.933594 164.195312 198.5625 164.578125 C 198.195312 164.957031 197.992188 165.46875 198 166 L 198 196.804688 L 179.585938 187.828125 L 198 107.335938 L 198 144 C 197.988281 144.722656 198.367188 145.390625 198.992188 145.753906 C 199.613281 146.121094 200.386719 146.121094 201.007812 145.753906 C 201.632812 145.390625 202.011719 144.722656 202 144 Z M 222.796875 191.3125 L 282.679688 245.695312 L 267.007812 236.59375 C 266.660156 236.386719 266.261719 236.289062 265.859375 236.3125 C 264.972656 236.363281 264.222656 236.992188 264.019531 237.859375 C 263.820312 238.726562 264.214844 239.621094 264.992188 240.054688 L 278.453125 247.867188 L 202 223.96875 L 202 201.257812 Z M 177.617188 191.320312 L 195.71875 200.140625 L 186.757812 205.265625 C 186.101562 205.601562 185.683594 206.269531 185.671875 207.007812 C 185.65625 207.742188 186.046875 208.425781 186.691406 208.789062 C 187.332031 209.148438 188.121094 209.128906 188.742188 208.734375 L 198 203.445312 L 198 223.960938 L 120.085938 247.96875 L 172.992188 217.734375 C 173.777344 217.300781 174.179688 216.394531 173.972656 215.519531 C 173.765625 214.648438 173 214.019531 172.101562 213.984375 C 171.71875 213.972656 171.335938 214.070312 171.007812 214.265625 L 118.742188 244.125 Z M 221.859375 210.765625 C 220.972656 210.816406 220.222656 211.445312 220.019531 212.3125 C 219.820312 213.179688 220.214844 214.074219 220.992188 214.507812 L 251.992188 232.507812 C 252.609375 232.867188 253.375 232.871094 253.996094 232.515625 C 254.617188 232.160156 255 231.5 255.003906 230.785156 C 255.003906 230.070312 254.625 229.40625 254.007812 229.046875 L 223.007812 211.046875 C 222.660156 210.839844 222.261719 210.742188 221.859375 210.765625 Z M 199.992188 227.53125 L 292.164062 256.351562 C 273.191406 287.339844 239.035156 308 200 308 C 160.8125 308 126.535156 287.183594 107.609375 255.992188 Z M 199.992188 227.53125 "/>
</g>
</svg>
