<?xml version="1.0" encoding="UTF-8"?>
<svg xmlns="http://www.w3.org/2000/svg" xmlns:xlink="http://www.w3.org/1999/xlink" viewBox="0 0 400 400" width="400px" height="400px">
<g id="surface8966670">
<path style=" stroke:none;fill-rule:nonzero;fill:rgb(0%,0%,0%);fill-opacity:1;" d="M 200 84 C 107.210938 84 32 132.355469 32 192 C 32 251.644531 107.210938 300 200 300 C 292.789062 300 368 251.644531 368 192 C 368 132.355469 292.789062 84 200 84 Z M 200 278.398438 C 123.355469 278.398438 61.214844 239.714844 61.214844 192 C 61.214844 144.285156 123.355469 105.601562 200 105.601562 C 276.644531 105.601562 338.785156 144.285156 338.785156 192 C 338.785156 239.714844 276.644531 278.398438 200 278.398438 Z M 200 278.398438 "/>
<path style=" stroke:none;fill-rule:nonzero;fill:rgb(0%,0%,0%);fill-opacity:1;" d="M 200 84 C 135.453125 84 83.132812 108.175781 83.132812 138 C 83.132812 167.824219 135.453125 192 200 192 C 264.546875 192 316.867188 167.824219 316.867188 138 C 316.867188 108.175781 264.546875 84 200 84 Z M 200 170.398438 C 151.597656 170.398438 112.347656 154.09375 112.347656 136.199219 C 112.347656 118.308594 151.597656 105.601562 200 105.601562 C 248.402344 105.601562 287.652344 118.308594 287.652344 136.199219 C 287.652344 154.09375 248.402344 170.398438 200 170.398438 Z M 200 170.398438 "/>
<path style="fill:none;stroke-width:3.44;stroke-linecap:round;stroke-linejoin:round;stroke:rgb(12.156863%,12.941177%,16.862746%);stroke-opacity:1;stroke-miterlimit:10;" d="M 13.76 82.56 C 13.76 56.911172 46.102383 36.12 86 36.12 C 125.897617 36.12 158.24 56.911172 158.24 82.56 C 158.24 108.208828 125.897617 129 86 129 C 46.102383 129 13.76 108.208828 13.76 82.56 Z M 13.76 82.56 " transform="matrix(2.325581,0,0,2.325581,0,0)"/>
<path style=" stroke:none;fill-rule:nonzero;fill:rgb(0%,0%,0%);fill-opacity:1;" d="M 200 105.601562 C 175.792969 105.601562 156.171875 144.285156 156.171875 192 C 156.171875 239.714844 175.792969 278.398438 200 278.398438 C 224.207031 278.398438 243.828125 239.714844 243.828125 192 C 243.828125 144.285156 224.207031 105.601562 200 105.601562 Z M 200 249.601562 C 187.894531 249.601562 178.089844 223.808594 178.089844 192 C 178.089844 160.191406 187.894531 134.398438 200 134.398438 C 212.105469 134.398438 221.910156 160.191406 221.910156 192 C 221.910156 223.808594 212.105469 249.601562 200 249.601562 Z M 200 249.601562 "/>
<path style="fill:none;stroke-width:3.44;stroke-linecap:round;stroke-linejoin:round;stroke:rgb(12.156863%,12.941177%,16.862746%);stroke-opacity:1;stroke-miterlimit:10;" d="M 86 45.408672 C 94.43707 45.408672 101.575742 56.340078 103.979375 71.406875 C 115.720391 68.818477 123.690508 63.85332 123.690508 58.565664 C 123.690508 50.872695 106.814688 45.408672 86 45.408672 Z M 86 45.408672 " transform="matrix(2.325581,0,0,2.325581,0,0)"/>
<path style="fill:none;stroke-width:3.44;stroke-linecap:round;stroke-linejoin:round;stroke:rgb(12.156863%,12.941177%,16.862746%);stroke-opacity:1;stroke-miterlimit:10;" d="M 86 57.791328 C 82.106484 57.791328 78.765586 63.999453 77.329453 72.854766 C 80.114375 73.123516 83.013516 73.271328 86 73.271328 C 88.986484 73.271328 91.885625 73.123516 94.670547 72.854766 C 93.234414 63.999453 89.893516 57.791328 86 57.791328 Z M 86 57.791328 " transform="matrix(2.325581,0,0,2.325581,0,0)"/>
<path style="fill:none;stroke-width:3.44;stroke-linecap:round;stroke-linejoin:round;stroke:rgb(12.156863%,12.941177%,16.862746%);stroke-opacity:1;stroke-miterlimit:10;" d="M 48.309492 58.565664 C 48.309492 63.85332 56.279609 68.818477 68.020625 71.406875 C 70.424258 56.340078 77.56293 45.408672 86 45.408672 C 65.185312 45.408672 48.309492 50.872695 48.309492 58.565664 Z M 48.309492 58.565664 " transform="matrix(2.325581,0,0,2.325581,0,0)"/>
<path style="fill:none;stroke-width:3.44;stroke-linecap:round;stroke-linejoin:round;stroke:rgb(12.156863%,12.941177%,16.862746%);stroke-opacity:1;stroke-miterlimit:10;" d="M 67.153906 82.56 C 67.153906 81.990586 67.184141 81.436289 67.197578 80.873594 C 50.573711 77.771211 38.364063 70.67957 36.128398 62.163555 C 29.93707 68.018945 26.322383 75.026602 26.322383 82.56 C 26.322383 103.077383 53.042852 119.711328 86 119.711328 C 75.590977 119.711328 67.153906 103.077383 67.153906 82.56 Z M 67.153906 82.56 " transform="matrix(2.325581,0,0,2.325581,0,0)"/>
<path style="fill:none;stroke-width:3.44;stroke-linecap:round;stroke-linejoin:round;stroke:rgb(12.156863%,12.941177%,16.862746%);stroke-opacity:1;stroke-miterlimit:10;" d="M 76.585352 82.151836 C 76.585352 82.28957 76.576953 82.422266 76.576953 82.56 C 76.576953 96.237695 80.792969 107.328672 85.99832 107.328672 C 91.203672 107.328672 95.419687 96.237695 95.419687 82.56 C 95.419687 82.422266 95.412969 82.28957 95.411289 82.151836 C 92.366016 82.420586 89.218281 82.56 86 82.56 C 82.781719 82.56 79.633984 82.420586 76.585352 82.151836 Z M 76.585352 82.151836 " transform="matrix(2.325581,0,0,2.325581,0,0)"/>
<path style="fill:none;stroke-width:3.44;stroke-linecap:round;stroke-linejoin:round;stroke:rgb(12.156863%,12.941177%,16.862746%);stroke-opacity:1;stroke-miterlimit:10;" d="M 135.871602 62.163555 C 133.635938 70.67957 121.426289 77.771211 104.802422 80.873594 C 104.815859 81.436289 104.846094 81.990586 104.846094 82.56 C 104.846094 103.077383 96.409023 119.711328 86 119.711328 C 118.957148 119.711328 145.677617 103.077383 145.677617 82.56 C 145.677617 75.026602 142.06293 68.018945 135.871602 62.163555 Z M 135.871602 62.163555 " transform="matrix(2.325581,0,0,2.325581,0,0)"/>
</g>
</svg>
