<?xml version="1.0" encoding="UTF-8"?>
<svg xmlns="http://www.w3.org/2000/svg" xmlns:xlink="http://www.w3.org/1999/xlink" viewBox="0 0 480 480" width="480px" height="480px">
<g id="surface8995357">
<path style=" stroke:none;fill-rule:evenodd;fill:rgb(0%,0%,0%);fill-opacity:1;" d="M 351.269531 99.21875 L 341.921875 113.800781 C 402.269531 144.789062 430 184.828125 430 240 C 430.421875 255.5 426.320312 274.5 416.148438 290 L 211.300781 290 C 199.570312 290 197.871094 274.589844 202.109375 267.121094 C 219.488281 236.398438 303.960938 130.300781 324.449219 104.511719 C 329.960938 97.320312 326.289062 90.421875 315.261719 88.160156 C 292.371094 83.378906 268.480469 80 239.511719 80 C 78.800781 80 20 172.011719 20 240.210938 C 20 314.191406 79.21875 400 239.929688 400 C 324.699219 400 381.589844 374.140625 416.03125 340 L 380.558594 340 C 350.359375 364.121094 302.378906 380 240 380 C 103.890625 380 50 305.660156 50 240 C 50.988281 181.378906 105.351562 102.859375 240.191406 100.191406 C 245.28125 100.050781 249.238281 104.699219 245.699219 109.070312 C 222.660156 137.390625 153.730469 225.710938 146.238281 237.539062 C 131.820312 260.230469 130.550781 271.21875 130.128906 278.539062 C 129.710938 285.730469 129.539062 298.878906 141.441406 309.261719 C 157.078125 322.921875 188.640625 320 213.089844 320 L 420.851562 320 C 429.46875 320 432.019531 317.460938 436.679688 311.261719 C 452.789062 286.75 460 264.019531 460 240.210938 C 460 191 428.949219 129.570312 351.269531 99.21875 Z M 351.269531 99.21875 "/>
<path style=" stroke:none;fill-rule:nonzero;fill:rgb(0%,0%,0%);fill-opacity:1;" d="M 210 300 L 408.921875 300 C 411.53125 296.988281 414.058594 293.78125 416.140625 290 L 210 290 C 207.640625 290 205.71875 288.960938 204.199219 287.320312 C 199.109375 282.578125 198.96875 272.671875 202.121094 267.121094 C 219.5 236.398438 303.96875 130.300781 324.460938 104.511719 C 329.96875 97.320312 326.300781 90.421875 315.269531 88.160156 C 314.328125 87.960938 313.351562 87.808594 312.410156 87.621094 C 310.519531 89.910156 309.148438 91.601562 308.578125 92.328125 L 307.671875 93.460938 C 236.941406 182.441406 196.710938 236.019531 184.699219 257.25 C 180.980469 263.800781 179.570312 272.011719 180.441406 279.980469 C 181.039062 285.410156 187.5 300 210 300 Z M 210 300 "/>
</g>
</svg>
